%TF.GenerationSoftware,KiCad,Pcbnew,5.1.9-1.fc33*%
%TF.CreationDate,2021-04-02T14:54:25-04:00*%
%TF.ProjectId,pcb,7063622e-6b69-4636-9164-5f7063625858,rev?*%
%TF.SameCoordinates,Original*%
%TF.FileFunction,Paste,Bot*%
%TF.FilePolarity,Positive*%
%FSLAX46Y46*%
G04 Gerber Fmt 4.6, Leading zero omitted, Abs format (unit mm)*
G04 Created by KiCad (PCBNEW 5.1.9-1.fc33) date 2021-04-02 14:54:25*
%MOMM*%
%LPD*%
G01*
G04 APERTURE LIST*
%ADD10R,1.200000X1.200000*%
G04 APERTURE END LIST*
D10*
%TO.C,D0*%
X87833000Y-186730000D03*
X90983000Y-186730000D03*
%TD*%
%TO.C,D1*%
X111583000Y-186730000D03*
X114733000Y-186730000D03*
%TD*%
%TO.C,D2*%
X135333000Y-186730000D03*
X138483000Y-186730000D03*
%TD*%
%TO.C,D3*%
X154333000Y-186730000D03*
X157483000Y-186730000D03*
%TD*%
%TO.C,D4*%
X173333000Y-186730000D03*
X176483000Y-186730000D03*
%TD*%
%TO.C,D5*%
X192333000Y-186730000D03*
X195483000Y-186730000D03*
%TD*%
%TO.C,D6*%
X211333000Y-186730000D03*
X214483000Y-186730000D03*
%TD*%
%TO.C,D7*%
X230333000Y-186730000D03*
X233483000Y-186730000D03*
%TD*%
%TO.C,D8*%
X249333000Y-186730000D03*
X252483000Y-186730000D03*
%TD*%
%TO.C,D9*%
X268333000Y-186730000D03*
X271483000Y-186730000D03*
%TD*%
%TO.C,D10*%
X287333000Y-186730000D03*
X290483000Y-186730000D03*
%TD*%
%TO.C,D11*%
X306333000Y-186730000D03*
X309483000Y-186730000D03*
%TD*%
%TO.C,D12*%
X325333000Y-186730000D03*
X328483000Y-186730000D03*
%TD*%
%TO.C,D13*%
X344333000Y-186730000D03*
X347483000Y-186730000D03*
%TD*%
%TO.C,D14*%
X363333000Y-186730000D03*
X366483000Y-186730000D03*
%TD*%
%TO.C,D15*%
X392233000Y-186730000D03*
X395383000Y-186730000D03*
%TD*%
%TO.C,D16*%
X411233000Y-186730000D03*
X414383000Y-186730000D03*
%TD*%
%TO.C,D17*%
X440033000Y-186730000D03*
X443183000Y-186730000D03*
%TD*%
%TO.C,D18*%
X459033000Y-186730000D03*
X462183000Y-186730000D03*
%TD*%
%TO.C,D19*%
X478033000Y-186730000D03*
X481183000Y-186730000D03*
%TD*%
%TO.C,D20*%
X497033000Y-186730000D03*
X500183000Y-186730000D03*
%TD*%
%TO.C,D21*%
X97333000Y-205730000D03*
X100483000Y-205730000D03*
%TD*%
%TO.C,D22*%
X125833000Y-205730000D03*
X128983000Y-205730000D03*
%TD*%
%TO.C,D23*%
X144833000Y-205730000D03*
X147983000Y-205730000D03*
%TD*%
%TO.C,D24*%
X163833000Y-205730000D03*
X166983000Y-205730000D03*
%TD*%
%TO.C,D25*%
X182833000Y-205730000D03*
X185983000Y-205730000D03*
%TD*%
%TO.C,D26*%
X201833000Y-205730000D03*
X204983000Y-205730000D03*
%TD*%
%TO.C,D27*%
X220833000Y-205730000D03*
X223983000Y-205730000D03*
%TD*%
%TO.C,D28*%
X239833000Y-205730000D03*
X242983000Y-205730000D03*
%TD*%
%TO.C,D29*%
X258833000Y-205730000D03*
X261983000Y-205730000D03*
%TD*%
%TO.C,D30*%
X277833000Y-205730000D03*
X280983000Y-205730000D03*
%TD*%
%TO.C,D31*%
X296833000Y-205730000D03*
X299983000Y-205730000D03*
%TD*%
%TO.C,D32*%
X318208000Y-205730000D03*
X321358000Y-205730000D03*
%TD*%
%TO.C,D33*%
X341958000Y-205730000D03*
X345108000Y-205730000D03*
%TD*%
%TO.C,D34*%
X392233000Y-205730000D03*
X395383000Y-205730000D03*
%TD*%
%TO.C,D35*%
X411233000Y-205730000D03*
X414383000Y-205730000D03*
%TD*%
%TO.C,D36*%
X440033000Y-205730000D03*
X443183000Y-205730000D03*
%TD*%
%TO.C,D37*%
X459033000Y-205730000D03*
X462183000Y-205730000D03*
%TD*%
%TO.C,D38*%
X478033000Y-205730000D03*
X481183000Y-205730000D03*
%TD*%
%TO.C,D39*%
X497033000Y-205730000D03*
X500183000Y-205730000D03*
%TD*%
%TO.C,D41*%
X499099000Y-230632000D03*
X495949000Y-230632000D03*
%TD*%
%TO.C,D42*%
X87833000Y-224730000D03*
X90983000Y-224730000D03*
%TD*%
%TO.C,D43*%
X109286750Y-224730000D03*
X112436750Y-224730000D03*
%TD*%
%TO.C,D44*%
X130740500Y-224730000D03*
X133890500Y-224730000D03*
%TD*%
%TO.C,D45*%
X149819250Y-224730000D03*
X152969250Y-224730000D03*
%TD*%
%TO.C,D46*%
X168898000Y-224730000D03*
X172048000Y-224730000D03*
%TD*%
%TO.C,D47*%
X187976750Y-224730000D03*
X191126750Y-224730000D03*
%TD*%
%TO.C,D49*%
X207055500Y-224730000D03*
X210205500Y-224730000D03*
%TD*%
%TO.C,D50*%
X226134250Y-224730000D03*
X229284250Y-224730000D03*
%TD*%
%TO.C,D51*%
X245213000Y-224730000D03*
X248363000Y-224730000D03*
%TD*%
%TO.C,D52*%
X264291750Y-224730000D03*
X267441750Y-224730000D03*
%TD*%
%TO.C,D53*%
X283370500Y-224730000D03*
X286520500Y-224730000D03*
%TD*%
%TO.C,D54*%
X302449250Y-224730000D03*
X305599250Y-224730000D03*
%TD*%
%TO.C,D55*%
X326278000Y-224730000D03*
X329428000Y-224730000D03*
%TD*%
%TO.C,D56*%
X354856750Y-224730000D03*
X358006750Y-224730000D03*
%TD*%
%TO.C,D57*%
X390960500Y-224730000D03*
X394110500Y-224730000D03*
%TD*%
%TO.C,D58*%
X410039250Y-224730000D03*
X413189250Y-224730000D03*
%TD*%
%TO.C,D59*%
X438918000Y-224730000D03*
X442068000Y-224730000D03*
%TD*%
%TO.C,D60*%
X457996750Y-224730000D03*
X461146750Y-224730000D03*
%TD*%
%TO.C,D61*%
X477075500Y-224730000D03*
X480225500Y-224730000D03*
%TD*%
%TO.C,D62*%
X496154250Y-224730000D03*
X499304250Y-224730000D03*
%TD*%
%TO.C,D63*%
X492585000Y-255016000D03*
X489435000Y-255016000D03*
%TD*%
%TO.C,D64*%
X87833000Y-243730000D03*
X90983000Y-243730000D03*
%TD*%
%TO.C,D65*%
X113958000Y-243730000D03*
X117108000Y-243730000D03*
%TD*%
%TO.C,D66*%
X140083000Y-243730000D03*
X143233000Y-243730000D03*
%TD*%
%TO.C,D67*%
X159083000Y-243730000D03*
X162233000Y-243730000D03*
%TD*%
%TO.C,D68*%
X178083000Y-243730000D03*
X181233000Y-243730000D03*
%TD*%
%TO.C,D69*%
X197083000Y-243730000D03*
X200233000Y-243730000D03*
%TD*%
%TO.C,D70*%
X216083000Y-243730000D03*
X219233000Y-243730000D03*
%TD*%
%TO.C,D71*%
X244805000Y-255016000D03*
X247955000Y-255016000D03*
%TD*%
%TO.C,D72*%
X235083000Y-243730000D03*
X238233000Y-243730000D03*
%TD*%
%TO.C,D73*%
X254083000Y-243730000D03*
X257233000Y-243730000D03*
%TD*%
%TO.C,D74*%
X273083000Y-243730000D03*
X276233000Y-243730000D03*
%TD*%
%TO.C,D75*%
X292083000Y-243730000D03*
X295233000Y-243730000D03*
%TD*%
%TO.C,D76*%
X311083000Y-243730000D03*
X314233000Y-243730000D03*
%TD*%
%TO.C,D77*%
X337208000Y-243730000D03*
X340358000Y-243730000D03*
%TD*%
%TO.C,D78*%
X363333000Y-243730000D03*
X366483000Y-243730000D03*
%TD*%
%TO.C,D79*%
X392233000Y-243730000D03*
X395383000Y-243730000D03*
%TD*%
%TO.C,D80*%
X411233000Y-243730000D03*
X414383000Y-243730000D03*
%TD*%
%TO.C,D81*%
X440033000Y-243730000D03*
X443183000Y-243730000D03*
%TD*%
%TO.C,D82*%
X459033000Y-243730000D03*
X462183000Y-243730000D03*
%TD*%
%TO.C,D83*%
X478033000Y-243730000D03*
X481183000Y-243730000D03*
%TD*%
%TO.C,D84*%
X433973000Y-255270000D03*
X437123000Y-255270000D03*
%TD*%
M02*
