%TF.GenerationSoftware,KiCad,Pcbnew,5.1.9-1.fc33*%
%TF.CreationDate,2021-04-02T14:54:25-04:00*%
%TF.ProjectId,pcb,7063622e-6b69-4636-9164-5f7063625858,rev?*%
%TF.SameCoordinates,Original*%
%TF.FileFunction,Soldermask,Top*%
%TF.FilePolarity,Negative*%
%FSLAX46Y46*%
G04 Gerber Fmt 4.6, Leading zero omitted, Abs format (unit mm)*
G04 Created by KiCad (PCBNEW 5.1.9-1.fc33) date 2021-04-02 14:54:25*
%MOMM*%
%LPD*%
G01*
G04 APERTURE LIST*
%ADD10C,4.200000*%
%ADD11C,5.300000*%
%ADD12C,5.000000*%
%ADD13C,6.800000*%
%ADD14C,1.600000*%
%ADD15R,1.600000X1.600000*%
%ADD16C,3.500000*%
G04 APERTURE END LIST*
D10*
%TO.C,3.0mm*%
X482208000Y-247880000D03*
%TD*%
%TO.C,3.0mm*%
X190308000Y-228980000D03*
%TD*%
%TO.C,3.0mm*%
X304408000Y-228980000D03*
%TD*%
%TO.C,3.0mm*%
X385608000Y-228980000D03*
%TD*%
%TO.C,3.0mm*%
X102208000Y-210180000D03*
%TD*%
%TO.C,3.0mm*%
X267608000Y-210180000D03*
%TD*%
%TO.C,3.0mm*%
X433308000Y-210180000D03*
%TD*%
%TO.C,3.0mm*%
X490608000Y-210180000D03*
%TD*%
%TO.C,3.0mm*%
X194808000Y-190980000D03*
%TD*%
%TO.C,3.0mm*%
X311408000Y-190980000D03*
%TD*%
%TO.C,3.0mm*%
X385508000Y-190980000D03*
%TD*%
%TO.C,3.0mm*%
X115308000Y-171880000D03*
%TD*%
%TO.C,3.0mm*%
X356508000Y-171880000D03*
%TD*%
%TO.C,3.0mm*%
X433208000Y-171880000D03*
%TD*%
%TO.C,3.0mm*%
X490408000Y-171880000D03*
%TD*%
%TO.C,3.0mm*%
X205008000Y-160380000D03*
%TD*%
%TO.C,3.0mm*%
X205008000Y-155180000D03*
%TD*%
D11*
%TO.C,4.1mm*%
X78608000Y-258380000D03*
%TD*%
D12*
%TO.C,3.8mm*%
X294908000Y-154480000D03*
%TD*%
D13*
%TO.C,5.6mm*%
X500408000Y-258280000D03*
%TD*%
%TO.C,5.6mm*%
X252708000Y-139480000D03*
%TD*%
%TO.C,5.6mm*%
X453708000Y-144180000D03*
%TD*%
D14*
%TO.C,D0*%
X93308000Y-186730000D03*
D15*
X85508000Y-186730000D03*
%TD*%
D14*
%TO.C,D1*%
X117058000Y-186730000D03*
D15*
X109258000Y-186730000D03*
%TD*%
D14*
%TO.C,D2*%
X140808000Y-186730000D03*
D15*
X133008000Y-186730000D03*
%TD*%
D14*
%TO.C,D3*%
X159808000Y-186730000D03*
D15*
X152008000Y-186730000D03*
%TD*%
D14*
%TO.C,D4*%
X178808000Y-186730000D03*
D15*
X171008000Y-186730000D03*
%TD*%
D14*
%TO.C,D5*%
X197808000Y-186730000D03*
D15*
X190008000Y-186730000D03*
%TD*%
D14*
%TO.C,D6*%
X216808000Y-186730000D03*
D15*
X209008000Y-186730000D03*
%TD*%
D14*
%TO.C,D7*%
X235808000Y-186730000D03*
D15*
X228008000Y-186730000D03*
%TD*%
D14*
%TO.C,D8*%
X254808000Y-186730000D03*
D15*
X247008000Y-186730000D03*
%TD*%
D14*
%TO.C,D9*%
X273808000Y-186730000D03*
D15*
X266008000Y-186730000D03*
%TD*%
D14*
%TO.C,D10*%
X292808000Y-186730000D03*
D15*
X285008000Y-186730000D03*
%TD*%
D14*
%TO.C,D11*%
X311808000Y-186730000D03*
D15*
X304008000Y-186730000D03*
%TD*%
D14*
%TO.C,D12*%
X330808000Y-186730000D03*
D15*
X323008000Y-186730000D03*
%TD*%
D14*
%TO.C,D13*%
X349808000Y-186730000D03*
D15*
X342008000Y-186730000D03*
%TD*%
D14*
%TO.C,D14*%
X368808000Y-186730000D03*
D15*
X361008000Y-186730000D03*
%TD*%
D14*
%TO.C,D15*%
X397708000Y-186730000D03*
D15*
X389908000Y-186730000D03*
%TD*%
D14*
%TO.C,D16*%
X416708000Y-186730000D03*
D15*
X408908000Y-186730000D03*
%TD*%
D14*
%TO.C,D17*%
X445508000Y-186730000D03*
D15*
X437708000Y-186730000D03*
%TD*%
D14*
%TO.C,D18*%
X464508000Y-186730000D03*
D15*
X456708000Y-186730000D03*
%TD*%
D14*
%TO.C,D19*%
X483508000Y-186730000D03*
D15*
X475708000Y-186730000D03*
%TD*%
D14*
%TO.C,D20*%
X502508000Y-186730000D03*
D15*
X494708000Y-186730000D03*
%TD*%
D14*
%TO.C,D21*%
X102808000Y-205730000D03*
D15*
X95008000Y-205730000D03*
%TD*%
D14*
%TO.C,D22*%
X131308000Y-205730000D03*
D15*
X123508000Y-205730000D03*
%TD*%
D14*
%TO.C,D23*%
X150308000Y-205730000D03*
D15*
X142508000Y-205730000D03*
%TD*%
D14*
%TO.C,D24*%
X169308000Y-205730000D03*
D15*
X161508000Y-205730000D03*
%TD*%
D14*
%TO.C,D25*%
X188308000Y-205730000D03*
D15*
X180508000Y-205730000D03*
%TD*%
D14*
%TO.C,D26*%
X207308000Y-205730000D03*
D15*
X199508000Y-205730000D03*
%TD*%
D14*
%TO.C,D27*%
X226308000Y-205730000D03*
D15*
X218508000Y-205730000D03*
%TD*%
D14*
%TO.C,D28*%
X245308000Y-205730000D03*
D15*
X237508000Y-205730000D03*
%TD*%
D14*
%TO.C,D29*%
X264308000Y-205730000D03*
D15*
X256508000Y-205730000D03*
%TD*%
D14*
%TO.C,D30*%
X283308000Y-205730000D03*
D15*
X275508000Y-205730000D03*
%TD*%
D14*
%TO.C,D31*%
X302308000Y-205730000D03*
D15*
X294508000Y-205730000D03*
%TD*%
D14*
%TO.C,D32*%
X323683000Y-205730000D03*
D15*
X315883000Y-205730000D03*
%TD*%
D14*
%TO.C,D33*%
X347433000Y-205730000D03*
D15*
X339633000Y-205730000D03*
%TD*%
D14*
%TO.C,D34*%
X397708000Y-205730000D03*
D15*
X389908000Y-205730000D03*
%TD*%
D14*
%TO.C,D35*%
X416708000Y-205730000D03*
D15*
X408908000Y-205730000D03*
%TD*%
D14*
%TO.C,D36*%
X445508000Y-205730000D03*
D15*
X437708000Y-205730000D03*
%TD*%
D14*
%TO.C,D37*%
X464508000Y-205730000D03*
D15*
X456708000Y-205730000D03*
%TD*%
D14*
%TO.C,D38*%
X483508000Y-205730000D03*
D15*
X475708000Y-205730000D03*
%TD*%
D14*
%TO.C,D39*%
X502508000Y-205730000D03*
D15*
X494708000Y-205730000D03*
%TD*%
D14*
%TO.C,D41*%
X493624000Y-230632000D03*
D15*
X501424000Y-230632000D03*
%TD*%
D14*
%TO.C,D42*%
X93308000Y-224730000D03*
D15*
X85508000Y-224730000D03*
%TD*%
D14*
%TO.C,D43*%
X114761750Y-224730000D03*
D15*
X106961750Y-224730000D03*
%TD*%
D14*
%TO.C,D44*%
X136215500Y-224730000D03*
D15*
X128415500Y-224730000D03*
%TD*%
D14*
%TO.C,D45*%
X155294250Y-224730000D03*
D15*
X147494250Y-224730000D03*
%TD*%
D14*
%TO.C,D46*%
X174373000Y-224730000D03*
D15*
X166573000Y-224730000D03*
%TD*%
D14*
%TO.C,D47*%
X193451750Y-224730000D03*
D15*
X185651750Y-224730000D03*
%TD*%
D14*
%TO.C,D49*%
X212530500Y-224730000D03*
D15*
X204730500Y-224730000D03*
%TD*%
D14*
%TO.C,D50*%
X231609250Y-224730000D03*
D15*
X223809250Y-224730000D03*
%TD*%
D14*
%TO.C,D51*%
X250688000Y-224730000D03*
D15*
X242888000Y-224730000D03*
%TD*%
D14*
%TO.C,D52*%
X269766750Y-224730000D03*
D15*
X261966750Y-224730000D03*
%TD*%
D14*
%TO.C,D53*%
X288845500Y-224730000D03*
D15*
X281045500Y-224730000D03*
%TD*%
D14*
%TO.C,D54*%
X307924250Y-224730000D03*
D15*
X300124250Y-224730000D03*
%TD*%
D14*
%TO.C,D55*%
X331753000Y-224730000D03*
D15*
X323953000Y-224730000D03*
%TD*%
D14*
%TO.C,D56*%
X360331750Y-224730000D03*
D15*
X352531750Y-224730000D03*
%TD*%
D14*
%TO.C,D57*%
X396435500Y-224730000D03*
D15*
X388635500Y-224730000D03*
%TD*%
D14*
%TO.C,D58*%
X415514250Y-224730000D03*
D15*
X407714250Y-224730000D03*
%TD*%
D14*
%TO.C,D59*%
X444393000Y-224730000D03*
D15*
X436593000Y-224730000D03*
%TD*%
D14*
%TO.C,D60*%
X463471750Y-224730000D03*
D15*
X455671750Y-224730000D03*
%TD*%
D14*
%TO.C,D61*%
X482550500Y-224730000D03*
D15*
X474750500Y-224730000D03*
%TD*%
D14*
%TO.C,D62*%
X501629250Y-224730000D03*
D15*
X493829250Y-224730000D03*
%TD*%
D14*
%TO.C,D63*%
X487110000Y-255016000D03*
D15*
X494910000Y-255016000D03*
%TD*%
D14*
%TO.C,D64*%
X93308000Y-243730000D03*
D15*
X85508000Y-243730000D03*
%TD*%
D14*
%TO.C,D65*%
X119433000Y-243730000D03*
D15*
X111633000Y-243730000D03*
%TD*%
D14*
%TO.C,D66*%
X145558000Y-243730000D03*
D15*
X137758000Y-243730000D03*
%TD*%
D14*
%TO.C,D67*%
X164558000Y-243730000D03*
D15*
X156758000Y-243730000D03*
%TD*%
D14*
%TO.C,D68*%
X183558000Y-243730000D03*
D15*
X175758000Y-243730000D03*
%TD*%
D14*
%TO.C,D69*%
X202558000Y-243730000D03*
D15*
X194758000Y-243730000D03*
%TD*%
D14*
%TO.C,D70*%
X221558000Y-243730000D03*
D15*
X213758000Y-243730000D03*
%TD*%
D14*
%TO.C,D71*%
X250280000Y-255016000D03*
D15*
X242480000Y-255016000D03*
%TD*%
D14*
%TO.C,D72*%
X240558000Y-243730000D03*
D15*
X232758000Y-243730000D03*
%TD*%
D14*
%TO.C,D73*%
X259558000Y-243730000D03*
D15*
X251758000Y-243730000D03*
%TD*%
D14*
%TO.C,D74*%
X278558000Y-243730000D03*
D15*
X270758000Y-243730000D03*
%TD*%
D14*
%TO.C,D75*%
X297558000Y-243730000D03*
D15*
X289758000Y-243730000D03*
%TD*%
D14*
%TO.C,D76*%
X316558000Y-243730000D03*
D15*
X308758000Y-243730000D03*
%TD*%
D14*
%TO.C,D77*%
X342683000Y-243730000D03*
D15*
X334883000Y-243730000D03*
%TD*%
D14*
%TO.C,D78*%
X368808000Y-243730000D03*
D15*
X361008000Y-243730000D03*
%TD*%
D14*
%TO.C,D79*%
X397708000Y-243730000D03*
D15*
X389908000Y-243730000D03*
%TD*%
D14*
%TO.C,D80*%
X416708000Y-243730000D03*
D15*
X408908000Y-243730000D03*
%TD*%
D14*
%TO.C,D81*%
X445508000Y-243730000D03*
D15*
X437708000Y-243730000D03*
%TD*%
D14*
%TO.C,D82*%
X464508000Y-243730000D03*
D15*
X456708000Y-243730000D03*
%TD*%
D14*
%TO.C,D83*%
X483508000Y-243730000D03*
D15*
X475708000Y-243730000D03*
%TD*%
D14*
%TO.C,D84*%
X439448000Y-255270000D03*
D15*
X431648000Y-255270000D03*
%TD*%
D16*
%TO.C,K0*%
X89408000Y-182420000D03*
X82808000Y-182420000D03*
X89408000Y-176680000D03*
X82808000Y-176680000D03*
%TD*%
%TO.C,K1*%
X113158000Y-182420000D03*
X106558000Y-182420000D03*
X113158000Y-176680000D03*
X106558000Y-176680000D03*
%TD*%
%TO.C,K2*%
X136908000Y-182420000D03*
X130308000Y-182420000D03*
X136908000Y-176680000D03*
X130308000Y-176680000D03*
%TD*%
%TO.C,K3*%
X155908000Y-182420000D03*
X149308000Y-182420000D03*
X155908000Y-176680000D03*
X149308000Y-176680000D03*
%TD*%
%TO.C,K4*%
X174908000Y-182420000D03*
X168308000Y-182420000D03*
X174908000Y-176680000D03*
X168308000Y-176680000D03*
%TD*%
%TO.C,K5*%
X193908000Y-182420000D03*
X187308000Y-182420000D03*
X193908000Y-176680000D03*
X187308000Y-176680000D03*
%TD*%
%TO.C,K6*%
X212908000Y-182420000D03*
X206308000Y-182420000D03*
X212908000Y-176680000D03*
X206308000Y-176680000D03*
%TD*%
%TO.C,K7*%
X231908000Y-182420000D03*
X225308000Y-182420000D03*
X231908000Y-176680000D03*
X225308000Y-176680000D03*
%TD*%
%TO.C,K8*%
X250908000Y-182420000D03*
X244308000Y-182420000D03*
X250908000Y-176680000D03*
X244308000Y-176680000D03*
%TD*%
%TO.C,K9*%
X269908000Y-182420000D03*
X263308000Y-182420000D03*
X269908000Y-176680000D03*
X263308000Y-176680000D03*
%TD*%
%TO.C,K10*%
X288908000Y-182420000D03*
X282308000Y-182420000D03*
X288908000Y-176680000D03*
X282308000Y-176680000D03*
%TD*%
%TO.C,K11*%
X307908000Y-182420000D03*
X301308000Y-182420000D03*
X307908000Y-176680000D03*
X301308000Y-176680000D03*
%TD*%
%TO.C,K12*%
X326908000Y-182420000D03*
X320308000Y-182420000D03*
X326908000Y-176680000D03*
X320308000Y-176680000D03*
%TD*%
%TO.C,K13*%
X345908000Y-182420000D03*
X339308000Y-182420000D03*
X345908000Y-176680000D03*
X339308000Y-176680000D03*
%TD*%
%TO.C,K14*%
X364908000Y-182420000D03*
X358308000Y-182420000D03*
X364908000Y-176680000D03*
X358308000Y-176680000D03*
%TD*%
%TO.C,K15*%
X393808000Y-182420000D03*
X387208000Y-182420000D03*
X393808000Y-176680000D03*
X387208000Y-176680000D03*
%TD*%
%TO.C,K16*%
X412808000Y-182420000D03*
X406208000Y-182420000D03*
X412808000Y-176680000D03*
X406208000Y-176680000D03*
%TD*%
%TO.C,K17*%
X441608000Y-182420000D03*
X435008000Y-182420000D03*
X441608000Y-176680000D03*
X435008000Y-176680000D03*
%TD*%
%TO.C,K18*%
X460608000Y-182420000D03*
X454008000Y-182420000D03*
X460608000Y-176680000D03*
X454008000Y-176680000D03*
%TD*%
%TO.C,K19*%
X479608000Y-182420000D03*
X473008000Y-182420000D03*
X479608000Y-176680000D03*
X473008000Y-176680000D03*
%TD*%
%TO.C,K20*%
X498608000Y-182420000D03*
X492008000Y-182420000D03*
X498608000Y-176680000D03*
X492008000Y-176680000D03*
%TD*%
%TO.C,K21*%
X98908000Y-201420000D03*
X92308000Y-201420000D03*
X98908000Y-195680000D03*
X92308000Y-195680000D03*
%TD*%
%TO.C,K22*%
X127408000Y-201420000D03*
X120808000Y-201420000D03*
X127408000Y-195680000D03*
X120808000Y-195680000D03*
%TD*%
%TO.C,K23*%
X146408000Y-201420000D03*
X139808000Y-201420000D03*
X146408000Y-195680000D03*
X139808000Y-195680000D03*
%TD*%
%TO.C,K24*%
X165408000Y-201420000D03*
X158808000Y-201420000D03*
X165408000Y-195680000D03*
X158808000Y-195680000D03*
%TD*%
%TO.C,K25*%
X184408000Y-201420000D03*
X177808000Y-201420000D03*
X184408000Y-195680000D03*
X177808000Y-195680000D03*
%TD*%
%TO.C,K26*%
X203408000Y-201420000D03*
X196808000Y-201420000D03*
X203408000Y-195680000D03*
X196808000Y-195680000D03*
%TD*%
%TO.C,K27*%
X222408000Y-201420000D03*
X215808000Y-201420000D03*
X222408000Y-195680000D03*
X215808000Y-195680000D03*
%TD*%
%TO.C,K28*%
X241408000Y-201420000D03*
X234808000Y-201420000D03*
X241408000Y-195680000D03*
X234808000Y-195680000D03*
%TD*%
%TO.C,K29*%
X260408000Y-201420000D03*
X253808000Y-201420000D03*
X260408000Y-195680000D03*
X253808000Y-195680000D03*
%TD*%
%TO.C,K30*%
X279408000Y-201420000D03*
X272808000Y-201420000D03*
X279408000Y-195680000D03*
X272808000Y-195680000D03*
%TD*%
%TO.C,K31*%
X298408000Y-201420000D03*
X291808000Y-201420000D03*
X298408000Y-195680000D03*
X291808000Y-195680000D03*
%TD*%
%TO.C,K32*%
X319783000Y-201420000D03*
X313183000Y-201420000D03*
X319783000Y-195680000D03*
X313183000Y-195680000D03*
%TD*%
%TO.C,K33*%
X343533000Y-201420000D03*
X336933000Y-201420000D03*
X343533000Y-195680000D03*
X336933000Y-195680000D03*
%TD*%
%TO.C,K34*%
X393808000Y-201420000D03*
X387208000Y-201420000D03*
X393808000Y-195680000D03*
X387208000Y-195680000D03*
%TD*%
%TO.C,K35*%
X412808000Y-201420000D03*
X406208000Y-201420000D03*
X412808000Y-195680000D03*
X406208000Y-195680000D03*
%TD*%
%TO.C,K36*%
X441608000Y-201420000D03*
X435008000Y-201420000D03*
X441608000Y-195680000D03*
X435008000Y-195680000D03*
%TD*%
%TO.C,K37*%
X460608000Y-201420000D03*
X454008000Y-201420000D03*
X460608000Y-195680000D03*
X454008000Y-195680000D03*
%TD*%
%TO.C,K38*%
X479608000Y-201420000D03*
X473008000Y-201420000D03*
X479608000Y-195680000D03*
X473008000Y-195680000D03*
%TD*%
%TO.C,K39*%
X498608000Y-201420000D03*
X492008000Y-201420000D03*
X498608000Y-195680000D03*
X492008000Y-195680000D03*
%TD*%
%TO.C,K41*%
X490421000Y-247100000D03*
X490421000Y-240500000D03*
X496161000Y-247100000D03*
X496161000Y-240500000D03*
%TD*%
%TO.C,K42*%
X89408000Y-220420000D03*
X82808000Y-220420000D03*
X89408000Y-214680000D03*
X82808000Y-214680000D03*
%TD*%
%TO.C,K43*%
X110783000Y-220420000D03*
X104183000Y-220420000D03*
X110783000Y-214680000D03*
X104183000Y-214680000D03*
%TD*%
%TO.C,K44*%
X132158000Y-220420000D03*
X125558000Y-220420000D03*
X132158000Y-214680000D03*
X125558000Y-214680000D03*
%TD*%
%TO.C,K45*%
X151158000Y-220420000D03*
X144558000Y-220420000D03*
X151158000Y-214680000D03*
X144558000Y-214680000D03*
%TD*%
%TO.C,K46*%
X170158000Y-220420000D03*
X163558000Y-220420000D03*
X170158000Y-214680000D03*
X163558000Y-214680000D03*
%TD*%
%TO.C,K47*%
X189158000Y-220420000D03*
X182558000Y-220420000D03*
X189158000Y-214680000D03*
X182558000Y-214680000D03*
%TD*%
%TO.C,K49*%
X208158000Y-220420000D03*
X201558000Y-220420000D03*
X208158000Y-214680000D03*
X201558000Y-214680000D03*
%TD*%
%TO.C,K50*%
X227158000Y-220420000D03*
X220558000Y-220420000D03*
X227158000Y-214680000D03*
X220558000Y-214680000D03*
%TD*%
%TO.C,K51*%
X246158000Y-220420000D03*
X239558000Y-220420000D03*
X246158000Y-214680000D03*
X239558000Y-214680000D03*
%TD*%
%TO.C,K52*%
X265158000Y-220420000D03*
X258558000Y-220420000D03*
X265158000Y-214680000D03*
X258558000Y-214680000D03*
%TD*%
%TO.C,K53*%
X284158000Y-220420000D03*
X277558000Y-220420000D03*
X284158000Y-214680000D03*
X277558000Y-214680000D03*
%TD*%
%TO.C,K54*%
X305533000Y-220420000D03*
X298933000Y-220420000D03*
X305533000Y-214680000D03*
X298933000Y-214680000D03*
%TD*%
%TO.C,K55*%
X329283000Y-220420000D03*
X322683000Y-220420000D03*
X329283000Y-214680000D03*
X322683000Y-214680000D03*
%TD*%
%TO.C,K56*%
X357783000Y-220420000D03*
X351183000Y-220420000D03*
X357783000Y-214680000D03*
X351183000Y-214680000D03*
%TD*%
%TO.C,K57*%
X393808000Y-220420000D03*
X387208000Y-220420000D03*
X393808000Y-214680000D03*
X387208000Y-214680000D03*
%TD*%
%TO.C,K58*%
X412808000Y-220420000D03*
X406208000Y-220420000D03*
X412808000Y-214680000D03*
X406208000Y-214680000D03*
%TD*%
%TO.C,K59*%
X441608000Y-220420000D03*
X435008000Y-220420000D03*
X441608000Y-214680000D03*
X435008000Y-214680000D03*
%TD*%
%TO.C,K60*%
X460608000Y-220420000D03*
X454008000Y-220420000D03*
X460608000Y-214680000D03*
X454008000Y-214680000D03*
%TD*%
%TO.C,K61*%
X479608000Y-220420000D03*
X473008000Y-220420000D03*
X479608000Y-214680000D03*
X473008000Y-214680000D03*
%TD*%
%TO.C,K62*%
X498608000Y-220420000D03*
X492008000Y-220420000D03*
X498608000Y-214680000D03*
X492008000Y-214680000D03*
%TD*%
%TO.C,K63*%
X479608000Y-258420000D03*
X473008000Y-258420000D03*
X479608000Y-252680000D03*
X473008000Y-252680000D03*
%TD*%
%TO.C,K64*%
X89408000Y-239420000D03*
X82808000Y-239420000D03*
X89408000Y-233680000D03*
X82808000Y-233680000D03*
%TD*%
%TO.C,K65*%
X115533000Y-239420000D03*
X108933000Y-239420000D03*
X115533000Y-233680000D03*
X108933000Y-233680000D03*
%TD*%
%TO.C,K66*%
X141658000Y-239420000D03*
X135058000Y-239420000D03*
X141658000Y-233680000D03*
X135058000Y-233680000D03*
%TD*%
%TO.C,K67*%
X160658000Y-239420000D03*
X154058000Y-239420000D03*
X160658000Y-233680000D03*
X154058000Y-233680000D03*
%TD*%
%TO.C,K68*%
X179658000Y-239420000D03*
X173058000Y-239420000D03*
X179658000Y-233680000D03*
X173058000Y-233680000D03*
%TD*%
%TO.C,K69*%
X198658000Y-239420000D03*
X192058000Y-239420000D03*
X198658000Y-233680000D03*
X192058000Y-233680000D03*
%TD*%
%TO.C,K70*%
X217658000Y-239420000D03*
X211058000Y-239420000D03*
X217658000Y-233680000D03*
X211058000Y-233680000D03*
%TD*%
%TO.C,K71*%
X227158000Y-258420000D03*
X220558000Y-258420000D03*
X227158000Y-252680000D03*
X220558000Y-252680000D03*
%TD*%
%TO.C,K72*%
X236658000Y-239420000D03*
X230058000Y-239420000D03*
X236658000Y-233680000D03*
X230058000Y-233680000D03*
%TD*%
%TO.C,K73*%
X255658000Y-239420000D03*
X249058000Y-239420000D03*
X255658000Y-233680000D03*
X249058000Y-233680000D03*
%TD*%
%TO.C,K74*%
X274658000Y-239420000D03*
X268058000Y-239420000D03*
X274658000Y-233680000D03*
X268058000Y-233680000D03*
%TD*%
%TO.C,K75*%
X293658000Y-239420000D03*
X287058000Y-239420000D03*
X293658000Y-233680000D03*
X287058000Y-233680000D03*
%TD*%
%TO.C,K76*%
X312658000Y-239420000D03*
X306058000Y-239420000D03*
X312658000Y-233680000D03*
X306058000Y-233680000D03*
%TD*%
%TO.C,K77*%
X338783000Y-239420000D03*
X332183000Y-239420000D03*
X338783000Y-233680000D03*
X332183000Y-233680000D03*
%TD*%
%TO.C,K78*%
X364908000Y-239420000D03*
X358308000Y-239420000D03*
X364908000Y-233680000D03*
X358308000Y-233680000D03*
%TD*%
%TO.C,K79*%
X393808000Y-239420000D03*
X387208000Y-239420000D03*
X393808000Y-233680000D03*
X387208000Y-233680000D03*
%TD*%
%TO.C,K80*%
X412808000Y-239420000D03*
X406208000Y-239420000D03*
X412808000Y-233680000D03*
X406208000Y-233680000D03*
%TD*%
%TO.C,K81*%
X441608000Y-239420000D03*
X435008000Y-239420000D03*
X441608000Y-233680000D03*
X435008000Y-233680000D03*
%TD*%
%TO.C,K82*%
X460608000Y-239420000D03*
X454008000Y-239420000D03*
X460608000Y-233680000D03*
X454008000Y-233680000D03*
%TD*%
%TO.C,K83*%
X479608000Y-239420000D03*
X473008000Y-239420000D03*
X479608000Y-233680000D03*
X473008000Y-233680000D03*
%TD*%
%TO.C,K84*%
X451108000Y-258420000D03*
X444508000Y-258420000D03*
X451108000Y-252680000D03*
X444508000Y-252680000D03*
%TD*%
D14*
%TO.C,U0*%
X226314000Y-144526000D03*
X226314000Y-154686000D03*
X216154000Y-141986000D03*
X218694000Y-141986000D03*
X221234000Y-141986000D03*
X223774000Y-141986000D03*
X226314000Y-141986000D03*
X228854000Y-141986000D03*
X231394000Y-141986000D03*
X233934000Y-141986000D03*
X236474000Y-141986000D03*
X239014000Y-141986000D03*
X241554000Y-141986000D03*
X244094000Y-141986000D03*
X244094000Y-144526000D03*
X244094000Y-147066000D03*
X244094000Y-152146000D03*
X244094000Y-154686000D03*
X244094000Y-157226000D03*
X241554000Y-157226000D03*
X239014000Y-157226000D03*
X236474000Y-157226000D03*
X233934000Y-157226000D03*
X231394000Y-157226000D03*
X228854000Y-157226000D03*
X226314000Y-157226000D03*
X223774000Y-157226000D03*
X221234000Y-157226000D03*
X218694000Y-157226000D03*
D15*
X216154000Y-157226000D03*
D14*
X244094000Y-149606000D03*
%TD*%
M02*
