M48
INCH
T1C0.0276
T2C0.0433
T3C0.0984
T4C0.1260
T5C0.1575
T6C0.1693
T7C0.2283
%
G90
G05
T1
X3.3665Y-7.3516
X3.3665Y-8.8476
X3.3665Y-9.5957
X3.6735Y-7.3516
X3.6735Y-8.8476
X3.6735Y-9.5957
X3.7405Y-8.0996
X4.0476Y-8.0996
X4.2111Y-8.8476
X4.3015Y-7.3516
X4.395Y-9.5957
X4.5182Y-8.8476
X4.6086Y-7.3516
X4.7021Y-9.5957
X4.8625Y-8.0996
X5.0557Y-8.8476
X5.1696Y-8.0996
X5.2365Y-7.3516
X5.3628Y-8.8476
X5.4235Y-9.5957
X5.5436Y-7.3516
X5.6106Y-8.0996
X5.7306Y-9.5957
X5.8069Y-8.8476
X5.9176Y-8.0996
X5.9846Y-7.3516
X6.1139Y-8.8476
X6.1716Y-9.5957
X6.2917Y-7.3516
X6.3586Y-8.0996
X6.4787Y-9.5957
X6.558Y-8.8476
X6.6657Y-8.0996
X6.7326Y-7.3516
X6.8651Y-8.8476
X6.9196Y-9.5957
X7.0397Y-7.3516
X7.1066Y-8.0996
X7.2267Y-9.5957
X7.3091Y-8.8476
X7.4137Y-8.0996
X7.4806Y-7.3516
X7.6162Y-8.8476
X7.6676Y-9.5957
X7.7877Y-7.3516
X7.8546Y-8.0996
X7.9747Y-9.5957
X8.0603Y-8.8476
X8.1617Y-8.0996
X8.2287Y-7.3516
X8.3673Y-8.8476
X8.4157Y-9.5957
X8.5357Y-7.3516
X8.6027Y-8.0996
X8.7228Y-9.5957
X8.8114Y-8.8476
X8.9098Y-8.0996
X8.9767Y-7.3516
X9.1185Y-8.8476
X9.1637Y-9.5957
X9.2838Y-7.3516
X9.3507Y-8.0996
X9.4708Y-9.5957
X9.5465Y-10.04
X9.5625Y-8.8476
X9.6578Y-8.0996
X9.7247Y-7.3516
X9.8535Y-10.04
X9.8696Y-8.8476
X9.9117Y-9.5957
X10.0318Y-7.3516
X10.0987Y-8.0996
X10.2188Y-9.5957
X10.3137Y-8.8476
X10.4058Y-8.0996
X10.4728Y-7.3516
X10.6207Y-8.8476
X10.6598Y-9.5957
X10.7798Y-7.3516
X10.8468Y-8.0996
X10.9669Y-9.5957
X11.0648Y-8.8476
X11.1539Y-8.0996
X11.2208Y-7.3516
X11.3719Y-8.8476
X11.4078Y-9.5957
X11.5279Y-7.3516
X11.5948Y-8.0996
X11.7149Y-9.5957
X11.8159Y-8.8476
X11.9019Y-8.0996
X11.9688Y-7.3516
X12.123Y-8.8476
X12.1558Y-9.5957
X12.2759Y-7.3516
X12.4363Y-8.0996
X12.4629Y-9.5957
X12.7169Y-7.3516
X12.7434Y-8.0996
X12.7541Y-8.8476
X13.0239Y-7.3516
X13.0611Y-8.8476
X13.1844Y-9.5957
X13.3714Y-8.0996
X13.4649Y-7.3516
X13.4915Y-9.5957
X13.6785Y-8.0996
X13.772Y-7.3516
X13.8792Y-8.8476
X14.1863Y-8.8476
X14.2129Y-7.3516
X14.2129Y-9.5957
X14.52Y-7.3516
X14.52Y-9.5957
X15.3006Y-8.8476
X15.3507Y-7.3516
X15.3507Y-8.0996
X15.3507Y-9.5957
X15.6077Y-8.8476
X15.6578Y-7.3516
X15.6578Y-8.0996
X15.6578Y-9.5957
X16.0517Y-8.8476
X16.0987Y-7.3516
X16.0987Y-8.0996
X16.0987Y-9.5957
X16.3588Y-8.8476
X16.4058Y-7.3516
X16.4058Y-8.0996
X16.4058Y-9.5957
X16.994Y-10.05
X17.1887Y-8.8476
X17.2326Y-7.3516
X17.2326Y-8.0996
X17.2326Y-9.5957
X17.3011Y-10.05
X17.4958Y-8.8476
X17.5397Y-7.3516
X17.5397Y-8.0996
X17.5397Y-9.5957
X17.9398Y-8.8476
X17.9806Y-7.3516
X17.9806Y-8.0996
X17.9806Y-9.5957
X18.2469Y-8.8476
X18.2877Y-7.3516
X18.2877Y-8.0996
X18.2877Y-9.5957
X18.691Y-8.8476
X18.7287Y-7.3516
X18.7287Y-8.0996
X18.7287Y-9.5957
X18.9981Y-8.8476
X19.0357Y-7.3516
X19.0357Y-8.0996
X19.0357Y-9.5957
X19.1776Y-10.04
X19.434Y-9.08
X19.4421Y-8.8476
X19.4767Y-7.3516
X19.4767Y-8.0996
X19.4846Y-10.04
X19.7411Y-9.08
X19.7492Y-8.8476
X19.7838Y-7.3516
X19.7838Y-8.0996
T2
X8.51Y-5.59
X8.51Y-6.19
X8.61Y-5.59
X8.61Y-6.19
X8.71Y-5.59
X8.71Y-6.19
X8.81Y-5.59
X8.81Y-6.19
X8.91Y-5.59
X8.91Y-5.69
X8.91Y-6.09
X8.91Y-6.19
X9.01Y-5.59
X9.01Y-6.19
X9.11Y-5.59
X9.11Y-6.19
X9.21Y-5.59
X9.21Y-6.19
X9.31Y-5.59
X9.31Y-6.19
X9.41Y-5.59
X9.41Y-6.19
X9.51Y-5.59
X9.51Y-6.19
X9.61Y-5.59
X9.61Y-5.69
X9.61Y-5.79
X9.61Y-5.89
X9.61Y-5.99
X9.61Y-6.09
X9.61Y-6.19
T3
X3.2602Y-6.9559
X3.2602Y-7.1819
X3.2602Y-8.452
X3.2602Y-8.678
X3.2602Y-9.2
X3.2602Y-9.426
X3.52Y-6.9559
X3.52Y-7.1819
X3.52Y-8.452
X3.52Y-8.678
X3.52Y-9.2
X3.52Y-9.426
X3.6342Y-7.7039
X3.6342Y-7.9299
X3.894Y-7.7039
X3.894Y-7.9299
X4.1017Y-8.452
X4.1017Y-8.678
X4.1952Y-6.9559
X4.1952Y-7.1819
X4.2887Y-9.2
X4.2887Y-9.426
X4.3615Y-8.452
X4.3615Y-8.678
X4.455Y-6.9559
X4.455Y-7.1819
X4.5485Y-9.2
X4.5485Y-9.426
X4.7562Y-7.7039
X4.7562Y-7.9299
X4.9432Y-8.452
X4.9432Y-8.678
X5.0161Y-7.7039
X5.0161Y-7.9299
X5.1302Y-6.9559
X5.1302Y-7.1819
X5.2031Y-8.452
X5.2031Y-8.678
X5.3172Y-9.2
X5.3172Y-9.426
X5.3901Y-6.9559
X5.3901Y-7.1819
X5.5043Y-7.7039
X5.5043Y-7.9299
X5.5771Y-9.2
X5.5771Y-9.426
X5.6913Y-8.452
X5.6913Y-8.678
X5.7641Y-7.7039
X5.7641Y-7.9299
X5.8783Y-6.9559
X5.8783Y-7.1819
X5.9511Y-8.452
X5.9511Y-8.678
X6.0653Y-9.2
X6.0653Y-9.426
X6.1381Y-6.9559
X6.1381Y-7.1819
X6.2523Y-7.7039
X6.2523Y-7.9299
X6.3251Y-9.2
X6.3251Y-9.426
X6.4393Y-8.452
X6.4393Y-8.678
X6.5121Y-7.7039
X6.5121Y-7.9299
X6.6263Y-6.9559
X6.6263Y-7.1819
X6.6991Y-8.452
X6.6991Y-8.678
X6.8133Y-9.2
X6.8133Y-9.426
X6.8861Y-6.9559
X6.8861Y-7.1819
X7.0003Y-7.7039
X7.0003Y-7.9299
X7.0731Y-9.2
X7.0731Y-9.426
X7.1873Y-8.452
X7.1873Y-8.678
X7.2602Y-7.7039
X7.2602Y-7.9299
X7.3743Y-6.9559
X7.3743Y-7.1819
X7.4472Y-8.452
X7.4472Y-8.678
X7.5613Y-9.2
X7.5613Y-9.426
X7.6342Y-6.9559
X7.6342Y-7.1819
X7.7483Y-7.7039
X7.7483Y-7.9299
X7.8212Y-9.2
X7.8212Y-9.426
X7.9354Y-8.452
X7.9354Y-8.678
X8.0082Y-7.7039
X8.0082Y-7.9299
X8.1224Y-6.9559
X8.1224Y-7.1819
X8.1952Y-8.452
X8.1952Y-8.678
X8.3094Y-9.2
X8.3094Y-9.426
X8.3822Y-6.9559
X8.3822Y-7.1819
X8.4964Y-7.7039
X8.4964Y-7.9299
X8.5692Y-9.2
X8.5692Y-9.426
X8.6834Y-8.452
X8.6834Y-8.678
X8.6834Y-9.948
X8.6834Y-10.174
X8.7562Y-7.7039
X8.7562Y-7.9299
X8.8704Y-6.9559
X8.8704Y-7.1819
X8.9432Y-8.452
X8.9432Y-8.678
X8.9432Y-9.948
X8.9432Y-10.174
X9.0574Y-9.2
X9.0574Y-9.426
X9.1302Y-6.9559
X9.1302Y-7.1819
X9.2444Y-7.7039
X9.2444Y-7.9299
X9.3172Y-9.2
X9.3172Y-9.426
X9.4314Y-8.452
X9.4314Y-8.678
X9.5043Y-7.7039
X9.5043Y-7.9299
X9.6184Y-6.9559
X9.6184Y-7.1819
X9.6913Y-8.452
X9.6913Y-8.678
X9.8054Y-9.2
X9.8054Y-9.426
X9.8783Y-6.9559
X9.8783Y-7.1819
X9.9924Y-7.7039
X9.9924Y-7.9299
X10.0653Y-9.2
X10.0653Y-9.426
X10.1794Y-8.452
X10.1794Y-8.678
X10.2523Y-7.7039
X10.2523Y-7.9299
X10.3665Y-6.9559
X10.3665Y-7.1819
X10.4393Y-8.452
X10.4393Y-8.678
X10.5535Y-9.2
X10.5535Y-9.426
X10.6263Y-6.9559
X10.6263Y-7.1819
X10.7405Y-7.7039
X10.7405Y-7.9299
X10.8133Y-9.2
X10.8133Y-9.426
X10.9275Y-8.452
X10.9275Y-8.678
X11.0003Y-7.7039
X11.0003Y-7.9299
X11.1145Y-6.9559
X11.1145Y-7.1819
X11.1873Y-8.452
X11.1873Y-8.678
X11.3015Y-9.2
X11.3015Y-9.426
X11.3743Y-6.9559
X11.3743Y-7.1819
X11.4885Y-7.7039
X11.4885Y-7.9299
X11.5613Y-9.2
X11.5613Y-9.426
X11.7483Y-7.7039
X11.7483Y-7.9299
X11.769Y-8.452
X11.769Y-8.678
X11.8625Y-6.9559
X11.8625Y-7.1819
X12.0289Y-8.452
X12.0289Y-8.678
X12.0495Y-9.2
X12.0495Y-9.426
X12.1224Y-6.9559
X12.1224Y-7.1819
X12.3094Y-9.2
X12.3094Y-9.426
X12.33Y-7.7039
X12.33Y-7.9299
X12.5899Y-7.7039
X12.5899Y-7.9299
X12.6106Y-6.9559
X12.6106Y-7.1819
X12.7041Y-8.452
X12.7041Y-8.678
X12.8704Y-6.9559
X12.8704Y-7.1819
X12.9639Y-8.452
X12.9639Y-8.678
X13.0781Y-9.2
X13.0781Y-9.426
X13.2651Y-7.7039
X13.2651Y-7.9299
X13.3379Y-9.2
X13.3379Y-9.426
X13.3586Y-6.9559
X13.3586Y-7.1819
X13.5249Y-7.7039
X13.5249Y-7.9299
X13.6184Y-6.9559
X13.6184Y-7.1819
X13.8261Y-8.452
X13.8261Y-8.678
X14.0859Y-8.452
X14.0859Y-8.678
X14.1066Y-6.9559
X14.1066Y-7.1819
X14.1066Y-9.2
X14.1066Y-9.426
X14.3665Y-6.9559
X14.3665Y-7.1819
X14.3665Y-9.2
X14.3665Y-9.426
X15.2444Y-6.9559
X15.2444Y-7.1819
X15.2444Y-7.7039
X15.2444Y-7.9299
X15.2444Y-8.452
X15.2444Y-8.678
X15.2444Y-9.2
X15.2444Y-9.426
X15.5043Y-6.9559
X15.5043Y-7.1819
X15.5043Y-7.7039
X15.5043Y-7.9299
X15.5043Y-8.452
X15.5043Y-8.678
X15.5043Y-9.2
X15.5043Y-9.426
X15.9924Y-6.9559
X15.9924Y-7.1819
X15.9924Y-7.7039
X15.9924Y-7.9299
X15.9924Y-8.452
X15.9924Y-8.678
X15.9924Y-9.2
X15.9924Y-9.426
X16.2523Y-6.9559
X16.2523Y-7.1819
X16.2523Y-7.7039
X16.2523Y-7.9299
X16.2523Y-8.452
X16.2523Y-8.678
X16.2523Y-9.2
X16.2523Y-9.426
X17.1263Y-6.9559
X17.1263Y-7.1819
X17.1263Y-7.7039
X17.1263Y-7.9299
X17.1263Y-8.452
X17.1263Y-8.678
X17.1263Y-9.2
X17.1263Y-9.426
X17.3861Y-6.9559
X17.3861Y-7.1819
X17.3861Y-7.7039
X17.3861Y-7.9299
X17.3861Y-8.452
X17.3861Y-8.678
X17.3861Y-9.2
X17.3861Y-9.426
X17.5003Y-9.948
X17.5003Y-10.174
X17.7602Y-9.948
X17.7602Y-10.174
X17.8743Y-6.9559
X17.8743Y-7.1819
X17.8743Y-7.7039
X17.8743Y-7.9299
X17.8743Y-8.452
X17.8743Y-8.678
X17.8743Y-9.2
X17.8743Y-9.426
X18.1342Y-6.9559
X18.1342Y-7.1819
X18.1342Y-7.7039
X18.1342Y-7.9299
X18.1342Y-8.452
X18.1342Y-8.678
X18.1342Y-9.2
X18.1342Y-9.426
X18.6224Y-6.9559
X18.6224Y-7.1819
X18.6224Y-7.7039
X18.6224Y-7.9299
X18.6224Y-8.452
X18.6224Y-8.678
X18.6224Y-9.2
X18.6224Y-9.426
X18.6224Y-9.948
X18.6224Y-10.174
X18.8822Y-6.9559
X18.8822Y-7.1819
X18.8822Y-7.7039
X18.8822Y-7.9299
X18.8822Y-8.452
X18.8822Y-8.678
X18.8822Y-9.2
X18.8822Y-9.426
X18.8822Y-9.948
X18.8822Y-10.174
X19.3079Y-9.4685
X19.3079Y-9.7283
X19.3704Y-6.9559
X19.3704Y-7.1819
X19.3704Y-7.7039
X19.3704Y-7.9299
X19.3704Y-8.452
X19.3704Y-8.678
X19.5339Y-9.4685
X19.5339Y-9.7283
X19.6302Y-6.9559
X19.6302Y-7.1819
X19.6302Y-7.7039
X19.6302Y-7.9299
X19.6302Y-8.452
X19.6302Y-8.678
T4
X4.0239Y-8.2748
X4.5397Y-6.7669
X7.4924Y-9.015
X7.6696Y-7.5189
X8.0712Y-6.1094
X8.0712Y-6.3142
X10.5357Y-8.2748
X11.9846Y-9.015
X12.2602Y-7.5189
X14.0357Y-6.7669
X15.1775Y-7.5189
X15.1814Y-9.015
X17.0554Y-6.7669
X17.0594Y-8.2748
X18.9846Y-9.7591
X19.3074Y-6.7669
X19.3153Y-8.2748
T5
X11.6106Y-6.0819
T6
X3.0948Y-10.1724
T7
X9.9491Y-5.4913
X17.8625Y-5.6764
X19.7011Y-10.1685
T0
M30
