%TF.GenerationSoftware,KiCad,Pcbnew,5.1.9-1.fc33*%
%TF.CreationDate,2021-04-02T14:54:25-04:00*%
%TF.ProjectId,pcb,7063622e-6b69-4636-9164-5f7063625858,rev?*%
%TF.SameCoordinates,Original*%
%TF.FileFunction,Copper,L2,Bot*%
%TF.FilePolarity,Positive*%
%FSLAX46Y46*%
G04 Gerber Fmt 4.6, Leading zero omitted, Abs format (unit mm)*
G04 Created by KiCad (PCBNEW 5.1.9-1.fc33) date 2021-04-02 14:54:25*
%MOMM*%
%LPD*%
G01*
G04 APERTURE LIST*
%TA.AperFunction,ComponentPad*%
%ADD10C,4.200000*%
%TD*%
%TA.AperFunction,ComponentPad*%
%ADD11C,5.300000*%
%TD*%
%TA.AperFunction,ComponentPad*%
%ADD12C,5.000000*%
%TD*%
%TA.AperFunction,ComponentPad*%
%ADD13C,6.800000*%
%TD*%
%TA.AperFunction,SMDPad,CuDef*%
%ADD14R,2.500000X0.500000*%
%TD*%
%TA.AperFunction,ComponentPad*%
%ADD15C,1.600000*%
%TD*%
%TA.AperFunction,ComponentPad*%
%ADD16R,1.600000X1.600000*%
%TD*%
%TA.AperFunction,SMDPad,CuDef*%
%ADD17R,1.200000X1.200000*%
%TD*%
%TA.AperFunction,ComponentPad*%
%ADD18C,3.500000*%
%TD*%
%TA.AperFunction,Conductor*%
%ADD19C,0.250000*%
%TD*%
G04 APERTURE END LIST*
D10*
%TO.P,3.0mm,1*%
%TO.N,N/C*%
X482208000Y-247880000D03*
%TD*%
%TO.P,3.0mm,1*%
%TO.N,N/C*%
X190308000Y-228980000D03*
%TD*%
%TO.P,3.0mm,1*%
%TO.N,N/C*%
X304408000Y-228980000D03*
%TD*%
%TO.P,3.0mm,1*%
%TO.N,N/C*%
X385608000Y-228980000D03*
%TD*%
%TO.P,3.0mm,1*%
%TO.N,N/C*%
X102208000Y-210180000D03*
%TD*%
%TO.P,3.0mm,1*%
%TO.N,N/C*%
X267608000Y-210180000D03*
%TD*%
%TO.P,3.0mm,1*%
%TO.N,N/C*%
X433308000Y-210180000D03*
%TD*%
%TO.P,3.0mm,1*%
%TO.N,N/C*%
X490608000Y-210180000D03*
%TD*%
%TO.P,3.0mm,1*%
%TO.N,N/C*%
X194808000Y-190980000D03*
%TD*%
%TO.P,3.0mm,1*%
%TO.N,N/C*%
X311408000Y-190980000D03*
%TD*%
%TO.P,3.0mm,1*%
%TO.N,N/C*%
X385508000Y-190980000D03*
%TD*%
%TO.P,3.0mm,1*%
%TO.N,N/C*%
X115308000Y-171880000D03*
%TD*%
%TO.P,3.0mm,1*%
%TO.N,N/C*%
X356508000Y-171880000D03*
%TD*%
%TO.P,3.0mm,1*%
%TO.N,N/C*%
X433208000Y-171880000D03*
%TD*%
%TO.P,3.0mm,1*%
%TO.N,N/C*%
X490408000Y-171880000D03*
%TD*%
%TO.P,3.0mm,1*%
%TO.N,N/C*%
X205008000Y-160380000D03*
%TD*%
%TO.P,3.0mm,1*%
%TO.N,N/C*%
X205008000Y-155180000D03*
%TD*%
D11*
%TO.P,4.1mm,1*%
%TO.N,N/C*%
X78608000Y-258380000D03*
%TD*%
D12*
%TO.P,3.8mm,1*%
%TO.N,N/C*%
X294908000Y-154480000D03*
%TD*%
D13*
%TO.P,5.6mm,1*%
%TO.N,N/C*%
X500408000Y-258280000D03*
%TD*%
%TO.P,5.6mm,1*%
%TO.N,N/C*%
X252708000Y-139480000D03*
%TD*%
%TO.P,5.6mm,1*%
%TO.N,N/C*%
X453708000Y-144180000D03*
%TD*%
D14*
%TO.P,D0,2*%
%TO.N,Net-(D0-Pad2)*%
X92108000Y-186730000D03*
%TO.P,D0,1*%
%TO.N,/row0*%
X86708000Y-186730000D03*
D15*
%TO.P,D0,2*%
%TO.N,Net-(D0-Pad2)*%
X93308000Y-186730000D03*
D16*
%TO.P,D0,1*%
%TO.N,/row0*%
X85508000Y-186730000D03*
D17*
X87833000Y-186730000D03*
%TO.P,D0,2*%
%TO.N,Net-(D0-Pad2)*%
X90983000Y-186730000D03*
%TD*%
D14*
%TO.P,D1,2*%
%TO.N,Net-(D1-Pad2)*%
X115858000Y-186730000D03*
%TO.P,D1,1*%
%TO.N,/row0*%
X110458000Y-186730000D03*
D15*
%TO.P,D1,2*%
%TO.N,Net-(D1-Pad2)*%
X117058000Y-186730000D03*
D16*
%TO.P,D1,1*%
%TO.N,/row0*%
X109258000Y-186730000D03*
D17*
X111583000Y-186730000D03*
%TO.P,D1,2*%
%TO.N,Net-(D1-Pad2)*%
X114733000Y-186730000D03*
%TD*%
D14*
%TO.P,D2,2*%
%TO.N,Net-(D2-Pad2)*%
X139608000Y-186730000D03*
%TO.P,D2,1*%
%TO.N,/row0*%
X134208000Y-186730000D03*
D15*
%TO.P,D2,2*%
%TO.N,Net-(D2-Pad2)*%
X140808000Y-186730000D03*
D16*
%TO.P,D2,1*%
%TO.N,/row0*%
X133008000Y-186730000D03*
D17*
X135333000Y-186730000D03*
%TO.P,D2,2*%
%TO.N,Net-(D2-Pad2)*%
X138483000Y-186730000D03*
%TD*%
D14*
%TO.P,D3,2*%
%TO.N,Net-(D3-Pad2)*%
X158608000Y-186730000D03*
%TO.P,D3,1*%
%TO.N,/row0*%
X153208000Y-186730000D03*
D15*
%TO.P,D3,2*%
%TO.N,Net-(D3-Pad2)*%
X159808000Y-186730000D03*
D16*
%TO.P,D3,1*%
%TO.N,/row0*%
X152008000Y-186730000D03*
D17*
X154333000Y-186730000D03*
%TO.P,D3,2*%
%TO.N,Net-(D3-Pad2)*%
X157483000Y-186730000D03*
%TD*%
D14*
%TO.P,D4,2*%
%TO.N,Net-(D4-Pad2)*%
X177608000Y-186730000D03*
%TO.P,D4,1*%
%TO.N,/row0*%
X172208000Y-186730000D03*
D15*
%TO.P,D4,2*%
%TO.N,Net-(D4-Pad2)*%
X178808000Y-186730000D03*
D16*
%TO.P,D4,1*%
%TO.N,/row0*%
X171008000Y-186730000D03*
D17*
X173333000Y-186730000D03*
%TO.P,D4,2*%
%TO.N,Net-(D4-Pad2)*%
X176483000Y-186730000D03*
%TD*%
D14*
%TO.P,D5,2*%
%TO.N,Net-(D5-Pad2)*%
X196608000Y-186730000D03*
%TO.P,D5,1*%
%TO.N,/row0*%
X191208000Y-186730000D03*
D15*
%TO.P,D5,2*%
%TO.N,Net-(D5-Pad2)*%
X197808000Y-186730000D03*
D16*
%TO.P,D5,1*%
%TO.N,/row0*%
X190008000Y-186730000D03*
D17*
X192333000Y-186730000D03*
%TO.P,D5,2*%
%TO.N,Net-(D5-Pad2)*%
X195483000Y-186730000D03*
%TD*%
D14*
%TO.P,D6,2*%
%TO.N,Net-(D6-Pad2)*%
X215608000Y-186730000D03*
%TO.P,D6,1*%
%TO.N,/row0*%
X210208000Y-186730000D03*
D15*
%TO.P,D6,2*%
%TO.N,Net-(D6-Pad2)*%
X216808000Y-186730000D03*
D16*
%TO.P,D6,1*%
%TO.N,/row0*%
X209008000Y-186730000D03*
D17*
X211333000Y-186730000D03*
%TO.P,D6,2*%
%TO.N,Net-(D6-Pad2)*%
X214483000Y-186730000D03*
%TD*%
D14*
%TO.P,D7,2*%
%TO.N,Net-(D7-Pad2)*%
X234608000Y-186730000D03*
%TO.P,D7,1*%
%TO.N,/row0*%
X229208000Y-186730000D03*
D15*
%TO.P,D7,2*%
%TO.N,Net-(D7-Pad2)*%
X235808000Y-186730000D03*
D16*
%TO.P,D7,1*%
%TO.N,/row0*%
X228008000Y-186730000D03*
D17*
X230333000Y-186730000D03*
%TO.P,D7,2*%
%TO.N,Net-(D7-Pad2)*%
X233483000Y-186730000D03*
%TD*%
D14*
%TO.P,D8,2*%
%TO.N,Net-(D8-Pad2)*%
X253608000Y-186730000D03*
%TO.P,D8,1*%
%TO.N,/row0*%
X248208000Y-186730000D03*
D15*
%TO.P,D8,2*%
%TO.N,Net-(D8-Pad2)*%
X254808000Y-186730000D03*
D16*
%TO.P,D8,1*%
%TO.N,/row0*%
X247008000Y-186730000D03*
D17*
X249333000Y-186730000D03*
%TO.P,D8,2*%
%TO.N,Net-(D8-Pad2)*%
X252483000Y-186730000D03*
%TD*%
D14*
%TO.P,D9,2*%
%TO.N,Net-(D9-Pad2)*%
X272608000Y-186730000D03*
%TO.P,D9,1*%
%TO.N,/row0*%
X267208000Y-186730000D03*
D15*
%TO.P,D9,2*%
%TO.N,Net-(D9-Pad2)*%
X273808000Y-186730000D03*
D16*
%TO.P,D9,1*%
%TO.N,/row0*%
X266008000Y-186730000D03*
D17*
X268333000Y-186730000D03*
%TO.P,D9,2*%
%TO.N,Net-(D9-Pad2)*%
X271483000Y-186730000D03*
%TD*%
D14*
%TO.P,D10,2*%
%TO.N,Net-(D10-Pad2)*%
X291608000Y-186730000D03*
%TO.P,D10,1*%
%TO.N,/row0*%
X286208000Y-186730000D03*
D15*
%TO.P,D10,2*%
%TO.N,Net-(D10-Pad2)*%
X292808000Y-186730000D03*
D16*
%TO.P,D10,1*%
%TO.N,/row0*%
X285008000Y-186730000D03*
D17*
X287333000Y-186730000D03*
%TO.P,D10,2*%
%TO.N,Net-(D10-Pad2)*%
X290483000Y-186730000D03*
%TD*%
D14*
%TO.P,D11,2*%
%TO.N,Net-(D11-Pad2)*%
X310608000Y-186730000D03*
%TO.P,D11,1*%
%TO.N,/row0*%
X305208000Y-186730000D03*
D15*
%TO.P,D11,2*%
%TO.N,Net-(D11-Pad2)*%
X311808000Y-186730000D03*
D16*
%TO.P,D11,1*%
%TO.N,/row0*%
X304008000Y-186730000D03*
D17*
X306333000Y-186730000D03*
%TO.P,D11,2*%
%TO.N,Net-(D11-Pad2)*%
X309483000Y-186730000D03*
%TD*%
D14*
%TO.P,D12,2*%
%TO.N,Net-(D12-Pad2)*%
X329608000Y-186730000D03*
%TO.P,D12,1*%
%TO.N,/row0*%
X324208000Y-186730000D03*
D15*
%TO.P,D12,2*%
%TO.N,Net-(D12-Pad2)*%
X330808000Y-186730000D03*
D16*
%TO.P,D12,1*%
%TO.N,/row0*%
X323008000Y-186730000D03*
D17*
X325333000Y-186730000D03*
%TO.P,D12,2*%
%TO.N,Net-(D12-Pad2)*%
X328483000Y-186730000D03*
%TD*%
D14*
%TO.P,D13,2*%
%TO.N,Net-(D13-Pad2)*%
X348608000Y-186730000D03*
%TO.P,D13,1*%
%TO.N,/row0*%
X343208000Y-186730000D03*
D15*
%TO.P,D13,2*%
%TO.N,Net-(D13-Pad2)*%
X349808000Y-186730000D03*
D16*
%TO.P,D13,1*%
%TO.N,/row0*%
X342008000Y-186730000D03*
D17*
X344333000Y-186730000D03*
%TO.P,D13,2*%
%TO.N,Net-(D13-Pad2)*%
X347483000Y-186730000D03*
%TD*%
D14*
%TO.P,D14,2*%
%TO.N,Net-(D14-Pad2)*%
X367608000Y-186730000D03*
%TO.P,D14,1*%
%TO.N,/row0*%
X362208000Y-186730000D03*
D15*
%TO.P,D14,2*%
%TO.N,Net-(D14-Pad2)*%
X368808000Y-186730000D03*
D16*
%TO.P,D14,1*%
%TO.N,/row0*%
X361008000Y-186730000D03*
D17*
X363333000Y-186730000D03*
%TO.P,D14,2*%
%TO.N,Net-(D14-Pad2)*%
X366483000Y-186730000D03*
%TD*%
D14*
%TO.P,D15,2*%
%TO.N,Net-(D15-Pad2)*%
X396508000Y-186730000D03*
%TO.P,D15,1*%
%TO.N,/row0*%
X391108000Y-186730000D03*
D15*
%TO.P,D15,2*%
%TO.N,Net-(D15-Pad2)*%
X397708000Y-186730000D03*
D16*
%TO.P,D15,1*%
%TO.N,/row0*%
X389908000Y-186730000D03*
D17*
X392233000Y-186730000D03*
%TO.P,D15,2*%
%TO.N,Net-(D15-Pad2)*%
X395383000Y-186730000D03*
%TD*%
D14*
%TO.P,D16,2*%
%TO.N,Net-(D16-Pad2)*%
X415508000Y-186730000D03*
%TO.P,D16,1*%
%TO.N,/row0*%
X410108000Y-186730000D03*
D15*
%TO.P,D16,2*%
%TO.N,Net-(D16-Pad2)*%
X416708000Y-186730000D03*
D16*
%TO.P,D16,1*%
%TO.N,/row0*%
X408908000Y-186730000D03*
D17*
X411233000Y-186730000D03*
%TO.P,D16,2*%
%TO.N,Net-(D16-Pad2)*%
X414383000Y-186730000D03*
%TD*%
D14*
%TO.P,D17,2*%
%TO.N,Net-(D17-Pad2)*%
X444308000Y-186730000D03*
%TO.P,D17,1*%
%TO.N,/row0*%
X438908000Y-186730000D03*
D15*
%TO.P,D17,2*%
%TO.N,Net-(D17-Pad2)*%
X445508000Y-186730000D03*
D16*
%TO.P,D17,1*%
%TO.N,/row0*%
X437708000Y-186730000D03*
D17*
X440033000Y-186730000D03*
%TO.P,D17,2*%
%TO.N,Net-(D17-Pad2)*%
X443183000Y-186730000D03*
%TD*%
D14*
%TO.P,D18,2*%
%TO.N,Net-(D18-Pad2)*%
X463308000Y-186730000D03*
%TO.P,D18,1*%
%TO.N,/row0*%
X457908000Y-186730000D03*
D15*
%TO.P,D18,2*%
%TO.N,Net-(D18-Pad2)*%
X464508000Y-186730000D03*
D16*
%TO.P,D18,1*%
%TO.N,/row0*%
X456708000Y-186730000D03*
D17*
X459033000Y-186730000D03*
%TO.P,D18,2*%
%TO.N,Net-(D18-Pad2)*%
X462183000Y-186730000D03*
%TD*%
D14*
%TO.P,D19,2*%
%TO.N,Net-(D19-Pad2)*%
X482308000Y-186730000D03*
%TO.P,D19,1*%
%TO.N,/row0*%
X476908000Y-186730000D03*
D15*
%TO.P,D19,2*%
%TO.N,Net-(D19-Pad2)*%
X483508000Y-186730000D03*
D16*
%TO.P,D19,1*%
%TO.N,/row0*%
X475708000Y-186730000D03*
D17*
X478033000Y-186730000D03*
%TO.P,D19,2*%
%TO.N,Net-(D19-Pad2)*%
X481183000Y-186730000D03*
%TD*%
D14*
%TO.P,D20,2*%
%TO.N,Net-(D20-Pad2)*%
X501308000Y-186730000D03*
%TO.P,D20,1*%
%TO.N,/row0*%
X495908000Y-186730000D03*
D15*
%TO.P,D20,2*%
%TO.N,Net-(D20-Pad2)*%
X502508000Y-186730000D03*
D16*
%TO.P,D20,1*%
%TO.N,/row0*%
X494708000Y-186730000D03*
D17*
X497033000Y-186730000D03*
%TO.P,D20,2*%
%TO.N,Net-(D20-Pad2)*%
X500183000Y-186730000D03*
%TD*%
D14*
%TO.P,D21,2*%
%TO.N,Net-(D21-Pad2)*%
X101608000Y-205730000D03*
%TO.P,D21,1*%
%TO.N,/row1*%
X96208000Y-205730000D03*
D15*
%TO.P,D21,2*%
%TO.N,Net-(D21-Pad2)*%
X102808000Y-205730000D03*
D16*
%TO.P,D21,1*%
%TO.N,/row1*%
X95008000Y-205730000D03*
D17*
X97333000Y-205730000D03*
%TO.P,D21,2*%
%TO.N,Net-(D21-Pad2)*%
X100483000Y-205730000D03*
%TD*%
D14*
%TO.P,D22,2*%
%TO.N,Net-(D22-Pad2)*%
X130108000Y-205730000D03*
%TO.P,D22,1*%
%TO.N,/row1*%
X124708000Y-205730000D03*
D15*
%TO.P,D22,2*%
%TO.N,Net-(D22-Pad2)*%
X131308000Y-205730000D03*
D16*
%TO.P,D22,1*%
%TO.N,/row1*%
X123508000Y-205730000D03*
D17*
X125833000Y-205730000D03*
%TO.P,D22,2*%
%TO.N,Net-(D22-Pad2)*%
X128983000Y-205730000D03*
%TD*%
D14*
%TO.P,D23,2*%
%TO.N,Net-(D23-Pad2)*%
X149108000Y-205730000D03*
%TO.P,D23,1*%
%TO.N,/row1*%
X143708000Y-205730000D03*
D15*
%TO.P,D23,2*%
%TO.N,Net-(D23-Pad2)*%
X150308000Y-205730000D03*
D16*
%TO.P,D23,1*%
%TO.N,/row1*%
X142508000Y-205730000D03*
D17*
X144833000Y-205730000D03*
%TO.P,D23,2*%
%TO.N,Net-(D23-Pad2)*%
X147983000Y-205730000D03*
%TD*%
D14*
%TO.P,D24,2*%
%TO.N,Net-(D24-Pad2)*%
X168108000Y-205730000D03*
%TO.P,D24,1*%
%TO.N,/row1*%
X162708000Y-205730000D03*
D15*
%TO.P,D24,2*%
%TO.N,Net-(D24-Pad2)*%
X169308000Y-205730000D03*
D16*
%TO.P,D24,1*%
%TO.N,/row1*%
X161508000Y-205730000D03*
D17*
X163833000Y-205730000D03*
%TO.P,D24,2*%
%TO.N,Net-(D24-Pad2)*%
X166983000Y-205730000D03*
%TD*%
D14*
%TO.P,D25,2*%
%TO.N,Net-(D25-Pad2)*%
X187108000Y-205730000D03*
%TO.P,D25,1*%
%TO.N,/row1*%
X181708000Y-205730000D03*
D15*
%TO.P,D25,2*%
%TO.N,Net-(D25-Pad2)*%
X188308000Y-205730000D03*
D16*
%TO.P,D25,1*%
%TO.N,/row1*%
X180508000Y-205730000D03*
D17*
X182833000Y-205730000D03*
%TO.P,D25,2*%
%TO.N,Net-(D25-Pad2)*%
X185983000Y-205730000D03*
%TD*%
D14*
%TO.P,D26,2*%
%TO.N,Net-(D26-Pad2)*%
X206108000Y-205730000D03*
%TO.P,D26,1*%
%TO.N,/row1*%
X200708000Y-205730000D03*
D15*
%TO.P,D26,2*%
%TO.N,Net-(D26-Pad2)*%
X207308000Y-205730000D03*
D16*
%TO.P,D26,1*%
%TO.N,/row1*%
X199508000Y-205730000D03*
D17*
X201833000Y-205730000D03*
%TO.P,D26,2*%
%TO.N,Net-(D26-Pad2)*%
X204983000Y-205730000D03*
%TD*%
D14*
%TO.P,D27,2*%
%TO.N,Net-(D27-Pad2)*%
X225108000Y-205730000D03*
%TO.P,D27,1*%
%TO.N,/row1*%
X219708000Y-205730000D03*
D15*
%TO.P,D27,2*%
%TO.N,Net-(D27-Pad2)*%
X226308000Y-205730000D03*
D16*
%TO.P,D27,1*%
%TO.N,/row1*%
X218508000Y-205730000D03*
D17*
X220833000Y-205730000D03*
%TO.P,D27,2*%
%TO.N,Net-(D27-Pad2)*%
X223983000Y-205730000D03*
%TD*%
D14*
%TO.P,D28,2*%
%TO.N,Net-(D28-Pad2)*%
X244108000Y-205730000D03*
%TO.P,D28,1*%
%TO.N,/row1*%
X238708000Y-205730000D03*
D15*
%TO.P,D28,2*%
%TO.N,Net-(D28-Pad2)*%
X245308000Y-205730000D03*
D16*
%TO.P,D28,1*%
%TO.N,/row1*%
X237508000Y-205730000D03*
D17*
X239833000Y-205730000D03*
%TO.P,D28,2*%
%TO.N,Net-(D28-Pad2)*%
X242983000Y-205730000D03*
%TD*%
D14*
%TO.P,D29,2*%
%TO.N,Net-(D29-Pad2)*%
X263108000Y-205730000D03*
%TO.P,D29,1*%
%TO.N,/row1*%
X257708000Y-205730000D03*
D15*
%TO.P,D29,2*%
%TO.N,Net-(D29-Pad2)*%
X264308000Y-205730000D03*
D16*
%TO.P,D29,1*%
%TO.N,/row1*%
X256508000Y-205730000D03*
D17*
X258833000Y-205730000D03*
%TO.P,D29,2*%
%TO.N,Net-(D29-Pad2)*%
X261983000Y-205730000D03*
%TD*%
D14*
%TO.P,D30,2*%
%TO.N,Net-(D30-Pad2)*%
X282108000Y-205730000D03*
%TO.P,D30,1*%
%TO.N,/row1*%
X276708000Y-205730000D03*
D15*
%TO.P,D30,2*%
%TO.N,Net-(D30-Pad2)*%
X283308000Y-205730000D03*
D16*
%TO.P,D30,1*%
%TO.N,/row1*%
X275508000Y-205730000D03*
D17*
X277833000Y-205730000D03*
%TO.P,D30,2*%
%TO.N,Net-(D30-Pad2)*%
X280983000Y-205730000D03*
%TD*%
D14*
%TO.P,D31,2*%
%TO.N,Net-(D31-Pad2)*%
X301108000Y-205730000D03*
%TO.P,D31,1*%
%TO.N,/row1*%
X295708000Y-205730000D03*
D15*
%TO.P,D31,2*%
%TO.N,Net-(D31-Pad2)*%
X302308000Y-205730000D03*
D16*
%TO.P,D31,1*%
%TO.N,/row1*%
X294508000Y-205730000D03*
D17*
X296833000Y-205730000D03*
%TO.P,D31,2*%
%TO.N,Net-(D31-Pad2)*%
X299983000Y-205730000D03*
%TD*%
D14*
%TO.P,D32,2*%
%TO.N,Net-(D32-Pad2)*%
X322483000Y-205730000D03*
%TO.P,D32,1*%
%TO.N,/row1*%
X317083000Y-205730000D03*
D15*
%TO.P,D32,2*%
%TO.N,Net-(D32-Pad2)*%
X323683000Y-205730000D03*
D16*
%TO.P,D32,1*%
%TO.N,/row1*%
X315883000Y-205730000D03*
D17*
X318208000Y-205730000D03*
%TO.P,D32,2*%
%TO.N,Net-(D32-Pad2)*%
X321358000Y-205730000D03*
%TD*%
D14*
%TO.P,D33,2*%
%TO.N,Net-(D33-Pad2)*%
X346233000Y-205730000D03*
%TO.P,D33,1*%
%TO.N,/row1*%
X340833000Y-205730000D03*
D15*
%TO.P,D33,2*%
%TO.N,Net-(D33-Pad2)*%
X347433000Y-205730000D03*
D16*
%TO.P,D33,1*%
%TO.N,/row1*%
X339633000Y-205730000D03*
D17*
X341958000Y-205730000D03*
%TO.P,D33,2*%
%TO.N,Net-(D33-Pad2)*%
X345108000Y-205730000D03*
%TD*%
D14*
%TO.P,D34,2*%
%TO.N,Net-(D34-Pad2)*%
X396508000Y-205730000D03*
%TO.P,D34,1*%
%TO.N,/row1*%
X391108000Y-205730000D03*
D15*
%TO.P,D34,2*%
%TO.N,Net-(D34-Pad2)*%
X397708000Y-205730000D03*
D16*
%TO.P,D34,1*%
%TO.N,/row1*%
X389908000Y-205730000D03*
D17*
X392233000Y-205730000D03*
%TO.P,D34,2*%
%TO.N,Net-(D34-Pad2)*%
X395383000Y-205730000D03*
%TD*%
D14*
%TO.P,D35,2*%
%TO.N,Net-(D35-Pad2)*%
X415508000Y-205730000D03*
%TO.P,D35,1*%
%TO.N,/row1*%
X410108000Y-205730000D03*
D15*
%TO.P,D35,2*%
%TO.N,Net-(D35-Pad2)*%
X416708000Y-205730000D03*
D16*
%TO.P,D35,1*%
%TO.N,/row1*%
X408908000Y-205730000D03*
D17*
X411233000Y-205730000D03*
%TO.P,D35,2*%
%TO.N,Net-(D35-Pad2)*%
X414383000Y-205730000D03*
%TD*%
D14*
%TO.P,D36,2*%
%TO.N,Net-(D36-Pad2)*%
X444308000Y-205730000D03*
%TO.P,D36,1*%
%TO.N,/row1*%
X438908000Y-205730000D03*
D15*
%TO.P,D36,2*%
%TO.N,Net-(D36-Pad2)*%
X445508000Y-205730000D03*
D16*
%TO.P,D36,1*%
%TO.N,/row1*%
X437708000Y-205730000D03*
D17*
X440033000Y-205730000D03*
%TO.P,D36,2*%
%TO.N,Net-(D36-Pad2)*%
X443183000Y-205730000D03*
%TD*%
D14*
%TO.P,D37,2*%
%TO.N,Net-(D37-Pad2)*%
X463308000Y-205730000D03*
%TO.P,D37,1*%
%TO.N,/row1*%
X457908000Y-205730000D03*
D15*
%TO.P,D37,2*%
%TO.N,Net-(D37-Pad2)*%
X464508000Y-205730000D03*
D16*
%TO.P,D37,1*%
%TO.N,/row1*%
X456708000Y-205730000D03*
D17*
X459033000Y-205730000D03*
%TO.P,D37,2*%
%TO.N,Net-(D37-Pad2)*%
X462183000Y-205730000D03*
%TD*%
D14*
%TO.P,D38,2*%
%TO.N,Net-(D38-Pad2)*%
X482308000Y-205730000D03*
%TO.P,D38,1*%
%TO.N,/row1*%
X476908000Y-205730000D03*
D15*
%TO.P,D38,2*%
%TO.N,Net-(D38-Pad2)*%
X483508000Y-205730000D03*
D16*
%TO.P,D38,1*%
%TO.N,/row1*%
X475708000Y-205730000D03*
D17*
X478033000Y-205730000D03*
%TO.P,D38,2*%
%TO.N,Net-(D38-Pad2)*%
X481183000Y-205730000D03*
%TD*%
D14*
%TO.P,D39,2*%
%TO.N,Net-(D39-Pad2)*%
X501308000Y-205730000D03*
%TO.P,D39,1*%
%TO.N,/row1*%
X495908000Y-205730000D03*
D15*
%TO.P,D39,2*%
%TO.N,Net-(D39-Pad2)*%
X502508000Y-205730000D03*
D16*
%TO.P,D39,1*%
%TO.N,/row1*%
X494708000Y-205730000D03*
D17*
X497033000Y-205730000D03*
%TO.P,D39,2*%
%TO.N,Net-(D39-Pad2)*%
X500183000Y-205730000D03*
%TD*%
D14*
%TO.P,D41,2*%
%TO.N,Net-(D41-Pad2)*%
X494824000Y-230632000D03*
%TO.P,D41,1*%
%TO.N,/row1*%
X500224000Y-230632000D03*
D15*
%TO.P,D41,2*%
%TO.N,Net-(D41-Pad2)*%
X493624000Y-230632000D03*
D16*
%TO.P,D41,1*%
%TO.N,/row1*%
X501424000Y-230632000D03*
D17*
X499099000Y-230632000D03*
%TO.P,D41,2*%
%TO.N,Net-(D41-Pad2)*%
X495949000Y-230632000D03*
%TD*%
D14*
%TO.P,D42,2*%
%TO.N,Net-(D42-Pad2)*%
X92108000Y-224730000D03*
%TO.P,D42,1*%
%TO.N,/row2*%
X86708000Y-224730000D03*
D15*
%TO.P,D42,2*%
%TO.N,Net-(D42-Pad2)*%
X93308000Y-224730000D03*
D16*
%TO.P,D42,1*%
%TO.N,/row2*%
X85508000Y-224730000D03*
D17*
X87833000Y-224730000D03*
%TO.P,D42,2*%
%TO.N,Net-(D42-Pad2)*%
X90983000Y-224730000D03*
%TD*%
D14*
%TO.P,D43,2*%
%TO.N,Net-(D43-Pad2)*%
X113561750Y-224730000D03*
%TO.P,D43,1*%
%TO.N,/row2*%
X108161750Y-224730000D03*
D15*
%TO.P,D43,2*%
%TO.N,Net-(D43-Pad2)*%
X114761750Y-224730000D03*
D16*
%TO.P,D43,1*%
%TO.N,/row2*%
X106961750Y-224730000D03*
D17*
X109286750Y-224730000D03*
%TO.P,D43,2*%
%TO.N,Net-(D43-Pad2)*%
X112436750Y-224730000D03*
%TD*%
D14*
%TO.P,D44,2*%
%TO.N,Net-(D44-Pad2)*%
X135015500Y-224730000D03*
%TO.P,D44,1*%
%TO.N,/row2*%
X129615500Y-224730000D03*
D15*
%TO.P,D44,2*%
%TO.N,Net-(D44-Pad2)*%
X136215500Y-224730000D03*
D16*
%TO.P,D44,1*%
%TO.N,/row2*%
X128415500Y-224730000D03*
D17*
X130740500Y-224730000D03*
%TO.P,D44,2*%
%TO.N,Net-(D44-Pad2)*%
X133890500Y-224730000D03*
%TD*%
D14*
%TO.P,D45,2*%
%TO.N,Net-(D45-Pad2)*%
X154094250Y-224730000D03*
%TO.P,D45,1*%
%TO.N,/row2*%
X148694250Y-224730000D03*
D15*
%TO.P,D45,2*%
%TO.N,Net-(D45-Pad2)*%
X155294250Y-224730000D03*
D16*
%TO.P,D45,1*%
%TO.N,/row2*%
X147494250Y-224730000D03*
D17*
X149819250Y-224730000D03*
%TO.P,D45,2*%
%TO.N,Net-(D45-Pad2)*%
X152969250Y-224730000D03*
%TD*%
D14*
%TO.P,D46,2*%
%TO.N,Net-(D46-Pad2)*%
X173173000Y-224730000D03*
%TO.P,D46,1*%
%TO.N,/row2*%
X167773000Y-224730000D03*
D15*
%TO.P,D46,2*%
%TO.N,Net-(D46-Pad2)*%
X174373000Y-224730000D03*
D16*
%TO.P,D46,1*%
%TO.N,/row2*%
X166573000Y-224730000D03*
D17*
X168898000Y-224730000D03*
%TO.P,D46,2*%
%TO.N,Net-(D46-Pad2)*%
X172048000Y-224730000D03*
%TD*%
D14*
%TO.P,D47,2*%
%TO.N,Net-(D47-Pad2)*%
X192251750Y-224730000D03*
%TO.P,D47,1*%
%TO.N,/row2*%
X186851750Y-224730000D03*
D15*
%TO.P,D47,2*%
%TO.N,Net-(D47-Pad2)*%
X193451750Y-224730000D03*
D16*
%TO.P,D47,1*%
%TO.N,/row2*%
X185651750Y-224730000D03*
D17*
X187976750Y-224730000D03*
%TO.P,D47,2*%
%TO.N,Net-(D47-Pad2)*%
X191126750Y-224730000D03*
%TD*%
D14*
%TO.P,D49,2*%
%TO.N,Net-(D49-Pad2)*%
X211330500Y-224730000D03*
%TO.P,D49,1*%
%TO.N,/row2*%
X205930500Y-224730000D03*
D15*
%TO.P,D49,2*%
%TO.N,Net-(D49-Pad2)*%
X212530500Y-224730000D03*
D16*
%TO.P,D49,1*%
%TO.N,/row2*%
X204730500Y-224730000D03*
D17*
X207055500Y-224730000D03*
%TO.P,D49,2*%
%TO.N,Net-(D49-Pad2)*%
X210205500Y-224730000D03*
%TD*%
D14*
%TO.P,D50,2*%
%TO.N,Net-(D50-Pad2)*%
X230409250Y-224730000D03*
%TO.P,D50,1*%
%TO.N,/row2*%
X225009250Y-224730000D03*
D15*
%TO.P,D50,2*%
%TO.N,Net-(D50-Pad2)*%
X231609250Y-224730000D03*
D16*
%TO.P,D50,1*%
%TO.N,/row2*%
X223809250Y-224730000D03*
D17*
X226134250Y-224730000D03*
%TO.P,D50,2*%
%TO.N,Net-(D50-Pad2)*%
X229284250Y-224730000D03*
%TD*%
D14*
%TO.P,D51,2*%
%TO.N,Net-(D51-Pad2)*%
X249488000Y-224730000D03*
%TO.P,D51,1*%
%TO.N,/row2*%
X244088000Y-224730000D03*
D15*
%TO.P,D51,2*%
%TO.N,Net-(D51-Pad2)*%
X250688000Y-224730000D03*
D16*
%TO.P,D51,1*%
%TO.N,/row2*%
X242888000Y-224730000D03*
D17*
X245213000Y-224730000D03*
%TO.P,D51,2*%
%TO.N,Net-(D51-Pad2)*%
X248363000Y-224730000D03*
%TD*%
D14*
%TO.P,D52,2*%
%TO.N,Net-(D52-Pad2)*%
X268566750Y-224730000D03*
%TO.P,D52,1*%
%TO.N,/row2*%
X263166750Y-224730000D03*
D15*
%TO.P,D52,2*%
%TO.N,Net-(D52-Pad2)*%
X269766750Y-224730000D03*
D16*
%TO.P,D52,1*%
%TO.N,/row2*%
X261966750Y-224730000D03*
D17*
X264291750Y-224730000D03*
%TO.P,D52,2*%
%TO.N,Net-(D52-Pad2)*%
X267441750Y-224730000D03*
%TD*%
D14*
%TO.P,D53,2*%
%TO.N,Net-(D53-Pad2)*%
X287645500Y-224730000D03*
%TO.P,D53,1*%
%TO.N,/row2*%
X282245500Y-224730000D03*
D15*
%TO.P,D53,2*%
%TO.N,Net-(D53-Pad2)*%
X288845500Y-224730000D03*
D16*
%TO.P,D53,1*%
%TO.N,/row2*%
X281045500Y-224730000D03*
D17*
X283370500Y-224730000D03*
%TO.P,D53,2*%
%TO.N,Net-(D53-Pad2)*%
X286520500Y-224730000D03*
%TD*%
D14*
%TO.P,D54,2*%
%TO.N,Net-(D54-Pad2)*%
X306724250Y-224730000D03*
%TO.P,D54,1*%
%TO.N,/row2*%
X301324250Y-224730000D03*
D15*
%TO.P,D54,2*%
%TO.N,Net-(D54-Pad2)*%
X307924250Y-224730000D03*
D16*
%TO.P,D54,1*%
%TO.N,/row2*%
X300124250Y-224730000D03*
D17*
X302449250Y-224730000D03*
%TO.P,D54,2*%
%TO.N,Net-(D54-Pad2)*%
X305599250Y-224730000D03*
%TD*%
D14*
%TO.P,D55,2*%
%TO.N,Net-(D55-Pad2)*%
X330553000Y-224730000D03*
%TO.P,D55,1*%
%TO.N,/row2*%
X325153000Y-224730000D03*
D15*
%TO.P,D55,2*%
%TO.N,Net-(D55-Pad2)*%
X331753000Y-224730000D03*
D16*
%TO.P,D55,1*%
%TO.N,/row2*%
X323953000Y-224730000D03*
D17*
X326278000Y-224730000D03*
%TO.P,D55,2*%
%TO.N,Net-(D55-Pad2)*%
X329428000Y-224730000D03*
%TD*%
D14*
%TO.P,D56,2*%
%TO.N,Net-(D56-Pad2)*%
X359131750Y-224730000D03*
%TO.P,D56,1*%
%TO.N,/row2*%
X353731750Y-224730000D03*
D15*
%TO.P,D56,2*%
%TO.N,Net-(D56-Pad2)*%
X360331750Y-224730000D03*
D16*
%TO.P,D56,1*%
%TO.N,/row2*%
X352531750Y-224730000D03*
D17*
X354856750Y-224730000D03*
%TO.P,D56,2*%
%TO.N,Net-(D56-Pad2)*%
X358006750Y-224730000D03*
%TD*%
D14*
%TO.P,D57,2*%
%TO.N,Net-(D57-Pad2)*%
X395235500Y-224730000D03*
%TO.P,D57,1*%
%TO.N,/row2*%
X389835500Y-224730000D03*
D15*
%TO.P,D57,2*%
%TO.N,Net-(D57-Pad2)*%
X396435500Y-224730000D03*
D16*
%TO.P,D57,1*%
%TO.N,/row2*%
X388635500Y-224730000D03*
D17*
X390960500Y-224730000D03*
%TO.P,D57,2*%
%TO.N,Net-(D57-Pad2)*%
X394110500Y-224730000D03*
%TD*%
D14*
%TO.P,D58,2*%
%TO.N,Net-(D58-Pad2)*%
X414314250Y-224730000D03*
%TO.P,D58,1*%
%TO.N,/row2*%
X408914250Y-224730000D03*
D15*
%TO.P,D58,2*%
%TO.N,Net-(D58-Pad2)*%
X415514250Y-224730000D03*
D16*
%TO.P,D58,1*%
%TO.N,/row2*%
X407714250Y-224730000D03*
D17*
X410039250Y-224730000D03*
%TO.P,D58,2*%
%TO.N,Net-(D58-Pad2)*%
X413189250Y-224730000D03*
%TD*%
D14*
%TO.P,D59,2*%
%TO.N,Net-(D59-Pad2)*%
X443193000Y-224730000D03*
%TO.P,D59,1*%
%TO.N,/row2*%
X437793000Y-224730000D03*
D15*
%TO.P,D59,2*%
%TO.N,Net-(D59-Pad2)*%
X444393000Y-224730000D03*
D16*
%TO.P,D59,1*%
%TO.N,/row2*%
X436593000Y-224730000D03*
D17*
X438918000Y-224730000D03*
%TO.P,D59,2*%
%TO.N,Net-(D59-Pad2)*%
X442068000Y-224730000D03*
%TD*%
D14*
%TO.P,D60,2*%
%TO.N,Net-(D60-Pad2)*%
X462271750Y-224730000D03*
%TO.P,D60,1*%
%TO.N,/row2*%
X456871750Y-224730000D03*
D15*
%TO.P,D60,2*%
%TO.N,Net-(D60-Pad2)*%
X463471750Y-224730000D03*
D16*
%TO.P,D60,1*%
%TO.N,/row2*%
X455671750Y-224730000D03*
D17*
X457996750Y-224730000D03*
%TO.P,D60,2*%
%TO.N,Net-(D60-Pad2)*%
X461146750Y-224730000D03*
%TD*%
D14*
%TO.P,D61,2*%
%TO.N,Net-(D61-Pad2)*%
X481350500Y-224730000D03*
%TO.P,D61,1*%
%TO.N,/row2*%
X475950500Y-224730000D03*
D15*
%TO.P,D61,2*%
%TO.N,Net-(D61-Pad2)*%
X482550500Y-224730000D03*
D16*
%TO.P,D61,1*%
%TO.N,/row2*%
X474750500Y-224730000D03*
D17*
X477075500Y-224730000D03*
%TO.P,D61,2*%
%TO.N,Net-(D61-Pad2)*%
X480225500Y-224730000D03*
%TD*%
D14*
%TO.P,D62,2*%
%TO.N,Net-(D62-Pad2)*%
X500429250Y-224730000D03*
%TO.P,D62,1*%
%TO.N,/row2*%
X495029250Y-224730000D03*
D15*
%TO.P,D62,2*%
%TO.N,Net-(D62-Pad2)*%
X501629250Y-224730000D03*
D16*
%TO.P,D62,1*%
%TO.N,/row2*%
X493829250Y-224730000D03*
D17*
X496154250Y-224730000D03*
%TO.P,D62,2*%
%TO.N,Net-(D62-Pad2)*%
X499304250Y-224730000D03*
%TD*%
D14*
%TO.P,D63,2*%
%TO.N,Net-(D63-Pad2)*%
X488310000Y-255016000D03*
%TO.P,D63,1*%
%TO.N,/row2*%
X493710000Y-255016000D03*
D15*
%TO.P,D63,2*%
%TO.N,Net-(D63-Pad2)*%
X487110000Y-255016000D03*
D16*
%TO.P,D63,1*%
%TO.N,/row2*%
X494910000Y-255016000D03*
D17*
X492585000Y-255016000D03*
%TO.P,D63,2*%
%TO.N,Net-(D63-Pad2)*%
X489435000Y-255016000D03*
%TD*%
D14*
%TO.P,D64,2*%
%TO.N,Net-(D64-Pad2)*%
X92108000Y-243730000D03*
%TO.P,D64,1*%
%TO.N,/row3*%
X86708000Y-243730000D03*
D15*
%TO.P,D64,2*%
%TO.N,Net-(D64-Pad2)*%
X93308000Y-243730000D03*
D16*
%TO.P,D64,1*%
%TO.N,/row3*%
X85508000Y-243730000D03*
D17*
X87833000Y-243730000D03*
%TO.P,D64,2*%
%TO.N,Net-(D64-Pad2)*%
X90983000Y-243730000D03*
%TD*%
D14*
%TO.P,D65,2*%
%TO.N,Net-(D65-Pad2)*%
X118233000Y-243730000D03*
%TO.P,D65,1*%
%TO.N,/row3*%
X112833000Y-243730000D03*
D15*
%TO.P,D65,2*%
%TO.N,Net-(D65-Pad2)*%
X119433000Y-243730000D03*
D16*
%TO.P,D65,1*%
%TO.N,/row3*%
X111633000Y-243730000D03*
D17*
X113958000Y-243730000D03*
%TO.P,D65,2*%
%TO.N,Net-(D65-Pad2)*%
X117108000Y-243730000D03*
%TD*%
D14*
%TO.P,D66,2*%
%TO.N,Net-(D66-Pad2)*%
X144358000Y-243730000D03*
%TO.P,D66,1*%
%TO.N,/row3*%
X138958000Y-243730000D03*
D15*
%TO.P,D66,2*%
%TO.N,Net-(D66-Pad2)*%
X145558000Y-243730000D03*
D16*
%TO.P,D66,1*%
%TO.N,/row3*%
X137758000Y-243730000D03*
D17*
X140083000Y-243730000D03*
%TO.P,D66,2*%
%TO.N,Net-(D66-Pad2)*%
X143233000Y-243730000D03*
%TD*%
D14*
%TO.P,D67,2*%
%TO.N,Net-(D67-Pad2)*%
X163358000Y-243730000D03*
%TO.P,D67,1*%
%TO.N,/row3*%
X157958000Y-243730000D03*
D15*
%TO.P,D67,2*%
%TO.N,Net-(D67-Pad2)*%
X164558000Y-243730000D03*
D16*
%TO.P,D67,1*%
%TO.N,/row3*%
X156758000Y-243730000D03*
D17*
X159083000Y-243730000D03*
%TO.P,D67,2*%
%TO.N,Net-(D67-Pad2)*%
X162233000Y-243730000D03*
%TD*%
D14*
%TO.P,D68,2*%
%TO.N,Net-(D68-Pad2)*%
X182358000Y-243730000D03*
%TO.P,D68,1*%
%TO.N,/row3*%
X176958000Y-243730000D03*
D15*
%TO.P,D68,2*%
%TO.N,Net-(D68-Pad2)*%
X183558000Y-243730000D03*
D16*
%TO.P,D68,1*%
%TO.N,/row3*%
X175758000Y-243730000D03*
D17*
X178083000Y-243730000D03*
%TO.P,D68,2*%
%TO.N,Net-(D68-Pad2)*%
X181233000Y-243730000D03*
%TD*%
D14*
%TO.P,D69,2*%
%TO.N,Net-(D69-Pad2)*%
X201358000Y-243730000D03*
%TO.P,D69,1*%
%TO.N,/row3*%
X195958000Y-243730000D03*
D15*
%TO.P,D69,2*%
%TO.N,Net-(D69-Pad2)*%
X202558000Y-243730000D03*
D16*
%TO.P,D69,1*%
%TO.N,/row3*%
X194758000Y-243730000D03*
D17*
X197083000Y-243730000D03*
%TO.P,D69,2*%
%TO.N,Net-(D69-Pad2)*%
X200233000Y-243730000D03*
%TD*%
D14*
%TO.P,D70,2*%
%TO.N,Net-(D70-Pad2)*%
X220358000Y-243730000D03*
%TO.P,D70,1*%
%TO.N,/row3*%
X214958000Y-243730000D03*
D15*
%TO.P,D70,2*%
%TO.N,Net-(D70-Pad2)*%
X221558000Y-243730000D03*
D16*
%TO.P,D70,1*%
%TO.N,/row3*%
X213758000Y-243730000D03*
D17*
X216083000Y-243730000D03*
%TO.P,D70,2*%
%TO.N,Net-(D70-Pad2)*%
X219233000Y-243730000D03*
%TD*%
D14*
%TO.P,D71,2*%
%TO.N,Net-(D71-Pad2)*%
X249080000Y-255016000D03*
%TO.P,D71,1*%
%TO.N,/row3*%
X243680000Y-255016000D03*
D15*
%TO.P,D71,2*%
%TO.N,Net-(D71-Pad2)*%
X250280000Y-255016000D03*
D16*
%TO.P,D71,1*%
%TO.N,/row3*%
X242480000Y-255016000D03*
D17*
X244805000Y-255016000D03*
%TO.P,D71,2*%
%TO.N,Net-(D71-Pad2)*%
X247955000Y-255016000D03*
%TD*%
D14*
%TO.P,D72,2*%
%TO.N,Net-(D72-Pad2)*%
X239358000Y-243730000D03*
%TO.P,D72,1*%
%TO.N,/row3*%
X233958000Y-243730000D03*
D15*
%TO.P,D72,2*%
%TO.N,Net-(D72-Pad2)*%
X240558000Y-243730000D03*
D16*
%TO.P,D72,1*%
%TO.N,/row3*%
X232758000Y-243730000D03*
D17*
X235083000Y-243730000D03*
%TO.P,D72,2*%
%TO.N,Net-(D72-Pad2)*%
X238233000Y-243730000D03*
%TD*%
D14*
%TO.P,D73,2*%
%TO.N,Net-(D73-Pad2)*%
X258358000Y-243730000D03*
%TO.P,D73,1*%
%TO.N,/row3*%
X252958000Y-243730000D03*
D15*
%TO.P,D73,2*%
%TO.N,Net-(D73-Pad2)*%
X259558000Y-243730000D03*
D16*
%TO.P,D73,1*%
%TO.N,/row3*%
X251758000Y-243730000D03*
D17*
X254083000Y-243730000D03*
%TO.P,D73,2*%
%TO.N,Net-(D73-Pad2)*%
X257233000Y-243730000D03*
%TD*%
D14*
%TO.P,D74,2*%
%TO.N,Net-(D74-Pad2)*%
X277358000Y-243730000D03*
%TO.P,D74,1*%
%TO.N,/row3*%
X271958000Y-243730000D03*
D15*
%TO.P,D74,2*%
%TO.N,Net-(D74-Pad2)*%
X278558000Y-243730000D03*
D16*
%TO.P,D74,1*%
%TO.N,/row3*%
X270758000Y-243730000D03*
D17*
X273083000Y-243730000D03*
%TO.P,D74,2*%
%TO.N,Net-(D74-Pad2)*%
X276233000Y-243730000D03*
%TD*%
D14*
%TO.P,D75,2*%
%TO.N,Net-(D75-Pad2)*%
X296358000Y-243730000D03*
%TO.P,D75,1*%
%TO.N,/row3*%
X290958000Y-243730000D03*
D15*
%TO.P,D75,2*%
%TO.N,Net-(D75-Pad2)*%
X297558000Y-243730000D03*
D16*
%TO.P,D75,1*%
%TO.N,/row3*%
X289758000Y-243730000D03*
D17*
X292083000Y-243730000D03*
%TO.P,D75,2*%
%TO.N,Net-(D75-Pad2)*%
X295233000Y-243730000D03*
%TD*%
D14*
%TO.P,D76,2*%
%TO.N,Net-(D76-Pad2)*%
X315358000Y-243730000D03*
%TO.P,D76,1*%
%TO.N,/row3*%
X309958000Y-243730000D03*
D15*
%TO.P,D76,2*%
%TO.N,Net-(D76-Pad2)*%
X316558000Y-243730000D03*
D16*
%TO.P,D76,1*%
%TO.N,/row3*%
X308758000Y-243730000D03*
D17*
X311083000Y-243730000D03*
%TO.P,D76,2*%
%TO.N,Net-(D76-Pad2)*%
X314233000Y-243730000D03*
%TD*%
D14*
%TO.P,D77,2*%
%TO.N,Net-(D77-Pad2)*%
X341483000Y-243730000D03*
%TO.P,D77,1*%
%TO.N,/row3*%
X336083000Y-243730000D03*
D15*
%TO.P,D77,2*%
%TO.N,Net-(D77-Pad2)*%
X342683000Y-243730000D03*
D16*
%TO.P,D77,1*%
%TO.N,/row3*%
X334883000Y-243730000D03*
D17*
X337208000Y-243730000D03*
%TO.P,D77,2*%
%TO.N,Net-(D77-Pad2)*%
X340358000Y-243730000D03*
%TD*%
D14*
%TO.P,D78,2*%
%TO.N,Net-(D78-Pad2)*%
X367608000Y-243730000D03*
%TO.P,D78,1*%
%TO.N,/row3*%
X362208000Y-243730000D03*
D15*
%TO.P,D78,2*%
%TO.N,Net-(D78-Pad2)*%
X368808000Y-243730000D03*
D16*
%TO.P,D78,1*%
%TO.N,/row3*%
X361008000Y-243730000D03*
D17*
X363333000Y-243730000D03*
%TO.P,D78,2*%
%TO.N,Net-(D78-Pad2)*%
X366483000Y-243730000D03*
%TD*%
D14*
%TO.P,D79,2*%
%TO.N,Net-(D79-Pad2)*%
X396508000Y-243730000D03*
%TO.P,D79,1*%
%TO.N,/row3*%
X391108000Y-243730000D03*
D15*
%TO.P,D79,2*%
%TO.N,Net-(D79-Pad2)*%
X397708000Y-243730000D03*
D16*
%TO.P,D79,1*%
%TO.N,/row3*%
X389908000Y-243730000D03*
D17*
X392233000Y-243730000D03*
%TO.P,D79,2*%
%TO.N,Net-(D79-Pad2)*%
X395383000Y-243730000D03*
%TD*%
D14*
%TO.P,D80,2*%
%TO.N,Net-(D80-Pad2)*%
X415508000Y-243730000D03*
%TO.P,D80,1*%
%TO.N,/row3*%
X410108000Y-243730000D03*
D15*
%TO.P,D80,2*%
%TO.N,Net-(D80-Pad2)*%
X416708000Y-243730000D03*
D16*
%TO.P,D80,1*%
%TO.N,/row3*%
X408908000Y-243730000D03*
D17*
X411233000Y-243730000D03*
%TO.P,D80,2*%
%TO.N,Net-(D80-Pad2)*%
X414383000Y-243730000D03*
%TD*%
D14*
%TO.P,D81,2*%
%TO.N,Net-(D81-Pad2)*%
X444308000Y-243730000D03*
%TO.P,D81,1*%
%TO.N,/row3*%
X438908000Y-243730000D03*
D15*
%TO.P,D81,2*%
%TO.N,Net-(D81-Pad2)*%
X445508000Y-243730000D03*
D16*
%TO.P,D81,1*%
%TO.N,/row3*%
X437708000Y-243730000D03*
D17*
X440033000Y-243730000D03*
%TO.P,D81,2*%
%TO.N,Net-(D81-Pad2)*%
X443183000Y-243730000D03*
%TD*%
D14*
%TO.P,D82,2*%
%TO.N,Net-(D82-Pad2)*%
X463308000Y-243730000D03*
%TO.P,D82,1*%
%TO.N,/row3*%
X457908000Y-243730000D03*
D15*
%TO.P,D82,2*%
%TO.N,Net-(D82-Pad2)*%
X464508000Y-243730000D03*
D16*
%TO.P,D82,1*%
%TO.N,/row3*%
X456708000Y-243730000D03*
D17*
X459033000Y-243730000D03*
%TO.P,D82,2*%
%TO.N,Net-(D82-Pad2)*%
X462183000Y-243730000D03*
%TD*%
D14*
%TO.P,D83,2*%
%TO.N,Net-(D83-Pad2)*%
X482308000Y-243730000D03*
%TO.P,D83,1*%
%TO.N,/row3*%
X476908000Y-243730000D03*
D15*
%TO.P,D83,2*%
%TO.N,Net-(D83-Pad2)*%
X483508000Y-243730000D03*
D16*
%TO.P,D83,1*%
%TO.N,/row3*%
X475708000Y-243730000D03*
D17*
X478033000Y-243730000D03*
%TO.P,D83,2*%
%TO.N,Net-(D83-Pad2)*%
X481183000Y-243730000D03*
%TD*%
D14*
%TO.P,D84,2*%
%TO.N,Net-(D84-Pad2)*%
X438248000Y-255270000D03*
%TO.P,D84,1*%
%TO.N,/row3*%
X432848000Y-255270000D03*
D15*
%TO.P,D84,2*%
%TO.N,Net-(D84-Pad2)*%
X439448000Y-255270000D03*
D16*
%TO.P,D84,1*%
%TO.N,/row3*%
X431648000Y-255270000D03*
D17*
X433973000Y-255270000D03*
%TO.P,D84,2*%
%TO.N,Net-(D84-Pad2)*%
X437123000Y-255270000D03*
%TD*%
D18*
%TO.P,K0,2*%
%TO.N,Net-(D0-Pad2)*%
X89408000Y-182420000D03*
%TO.P,K0,1*%
%TO.N,/col0*%
X82808000Y-182420000D03*
%TO.P,K0,2*%
%TO.N,Net-(D0-Pad2)*%
X89408000Y-176680000D03*
%TO.P,K0,1*%
%TO.N,/col0*%
X82808000Y-176680000D03*
%TD*%
%TO.P,K1,2*%
%TO.N,Net-(D1-Pad2)*%
X113158000Y-182420000D03*
%TO.P,K1,1*%
%TO.N,/col1*%
X106558000Y-182420000D03*
%TO.P,K1,2*%
%TO.N,Net-(D1-Pad2)*%
X113158000Y-176680000D03*
%TO.P,K1,1*%
%TO.N,/col1*%
X106558000Y-176680000D03*
%TD*%
%TO.P,K2,2*%
%TO.N,Net-(D2-Pad2)*%
X136908000Y-182420000D03*
%TO.P,K2,1*%
%TO.N,/col2*%
X130308000Y-182420000D03*
%TO.P,K2,2*%
%TO.N,Net-(D2-Pad2)*%
X136908000Y-176680000D03*
%TO.P,K2,1*%
%TO.N,/col2*%
X130308000Y-176680000D03*
%TD*%
%TO.P,K3,2*%
%TO.N,Net-(D3-Pad2)*%
X155908000Y-182420000D03*
%TO.P,K3,1*%
%TO.N,/col3*%
X149308000Y-182420000D03*
%TO.P,K3,2*%
%TO.N,Net-(D3-Pad2)*%
X155908000Y-176680000D03*
%TO.P,K3,1*%
%TO.N,/col3*%
X149308000Y-176680000D03*
%TD*%
%TO.P,K4,2*%
%TO.N,Net-(D4-Pad2)*%
X174908000Y-182420000D03*
%TO.P,K4,1*%
%TO.N,/col4*%
X168308000Y-182420000D03*
%TO.P,K4,2*%
%TO.N,Net-(D4-Pad2)*%
X174908000Y-176680000D03*
%TO.P,K4,1*%
%TO.N,/col4*%
X168308000Y-176680000D03*
%TD*%
%TO.P,K5,2*%
%TO.N,Net-(D5-Pad2)*%
X193908000Y-182420000D03*
%TO.P,K5,1*%
%TO.N,/col5*%
X187308000Y-182420000D03*
%TO.P,K5,2*%
%TO.N,Net-(D5-Pad2)*%
X193908000Y-176680000D03*
%TO.P,K5,1*%
%TO.N,/col5*%
X187308000Y-176680000D03*
%TD*%
%TO.P,K6,2*%
%TO.N,Net-(D6-Pad2)*%
X212908000Y-182420000D03*
%TO.P,K6,1*%
%TO.N,/col6*%
X206308000Y-182420000D03*
%TO.P,K6,2*%
%TO.N,Net-(D6-Pad2)*%
X212908000Y-176680000D03*
%TO.P,K6,1*%
%TO.N,/col6*%
X206308000Y-176680000D03*
%TD*%
%TO.P,K7,2*%
%TO.N,Net-(D7-Pad2)*%
X231908000Y-182420000D03*
%TO.P,K7,1*%
%TO.N,/col7*%
X225308000Y-182420000D03*
%TO.P,K7,2*%
%TO.N,Net-(D7-Pad2)*%
X231908000Y-176680000D03*
%TO.P,K7,1*%
%TO.N,/col7*%
X225308000Y-176680000D03*
%TD*%
%TO.P,K8,2*%
%TO.N,Net-(D8-Pad2)*%
X250908000Y-182420000D03*
%TO.P,K8,1*%
%TO.N,/col8*%
X244308000Y-182420000D03*
%TO.P,K8,2*%
%TO.N,Net-(D8-Pad2)*%
X250908000Y-176680000D03*
%TO.P,K8,1*%
%TO.N,/col8*%
X244308000Y-176680000D03*
%TD*%
%TO.P,K9,2*%
%TO.N,Net-(D9-Pad2)*%
X269908000Y-182420000D03*
%TO.P,K9,1*%
%TO.N,/col9*%
X263308000Y-182420000D03*
%TO.P,K9,2*%
%TO.N,Net-(D9-Pad2)*%
X269908000Y-176680000D03*
%TO.P,K9,1*%
%TO.N,/col9*%
X263308000Y-176680000D03*
%TD*%
%TO.P,K10,2*%
%TO.N,Net-(D10-Pad2)*%
X288908000Y-182420000D03*
%TO.P,K10,1*%
%TO.N,/col10*%
X282308000Y-182420000D03*
%TO.P,K10,2*%
%TO.N,Net-(D10-Pad2)*%
X288908000Y-176680000D03*
%TO.P,K10,1*%
%TO.N,/col10*%
X282308000Y-176680000D03*
%TD*%
%TO.P,K11,2*%
%TO.N,Net-(D11-Pad2)*%
X307908000Y-182420000D03*
%TO.P,K11,1*%
%TO.N,/col11*%
X301308000Y-182420000D03*
%TO.P,K11,2*%
%TO.N,Net-(D11-Pad2)*%
X307908000Y-176680000D03*
%TO.P,K11,1*%
%TO.N,/col11*%
X301308000Y-176680000D03*
%TD*%
%TO.P,K12,2*%
%TO.N,Net-(D12-Pad2)*%
X326908000Y-182420000D03*
%TO.P,K12,1*%
%TO.N,/col12*%
X320308000Y-182420000D03*
%TO.P,K12,2*%
%TO.N,Net-(D12-Pad2)*%
X326908000Y-176680000D03*
%TO.P,K12,1*%
%TO.N,/col12*%
X320308000Y-176680000D03*
%TD*%
%TO.P,K13,2*%
%TO.N,Net-(D13-Pad2)*%
X345908000Y-182420000D03*
%TO.P,K13,1*%
%TO.N,/col13*%
X339308000Y-182420000D03*
%TO.P,K13,2*%
%TO.N,Net-(D13-Pad2)*%
X345908000Y-176680000D03*
%TO.P,K13,1*%
%TO.N,/col13*%
X339308000Y-176680000D03*
%TD*%
%TO.P,K14,2*%
%TO.N,Net-(D14-Pad2)*%
X364908000Y-182420000D03*
%TO.P,K14,1*%
%TO.N,/col14*%
X358308000Y-182420000D03*
%TO.P,K14,2*%
%TO.N,Net-(D14-Pad2)*%
X364908000Y-176680000D03*
%TO.P,K14,1*%
%TO.N,/col14*%
X358308000Y-176680000D03*
%TD*%
%TO.P,K15,2*%
%TO.N,Net-(D15-Pad2)*%
X393808000Y-182420000D03*
%TO.P,K15,1*%
%TO.N,/col15*%
X387208000Y-182420000D03*
%TO.P,K15,2*%
%TO.N,Net-(D15-Pad2)*%
X393808000Y-176680000D03*
%TO.P,K15,1*%
%TO.N,/col15*%
X387208000Y-176680000D03*
%TD*%
%TO.P,K16,2*%
%TO.N,Net-(D16-Pad2)*%
X412808000Y-182420000D03*
%TO.P,K16,1*%
%TO.N,/col16*%
X406208000Y-182420000D03*
%TO.P,K16,2*%
%TO.N,Net-(D16-Pad2)*%
X412808000Y-176680000D03*
%TO.P,K16,1*%
%TO.N,/col16*%
X406208000Y-176680000D03*
%TD*%
%TO.P,K17,2*%
%TO.N,Net-(D17-Pad2)*%
X441608000Y-182420000D03*
%TO.P,K17,1*%
%TO.N,/col17*%
X435008000Y-182420000D03*
%TO.P,K17,2*%
%TO.N,Net-(D17-Pad2)*%
X441608000Y-176680000D03*
%TO.P,K17,1*%
%TO.N,/col17*%
X435008000Y-176680000D03*
%TD*%
%TO.P,K18,2*%
%TO.N,Net-(D18-Pad2)*%
X460608000Y-182420000D03*
%TO.P,K18,1*%
%TO.N,/col18*%
X454008000Y-182420000D03*
%TO.P,K18,2*%
%TO.N,Net-(D18-Pad2)*%
X460608000Y-176680000D03*
%TO.P,K18,1*%
%TO.N,/col18*%
X454008000Y-176680000D03*
%TD*%
%TO.P,K19,2*%
%TO.N,Net-(D19-Pad2)*%
X479608000Y-182420000D03*
%TO.P,K19,1*%
%TO.N,/col19*%
X473008000Y-182420000D03*
%TO.P,K19,2*%
%TO.N,Net-(D19-Pad2)*%
X479608000Y-176680000D03*
%TO.P,K19,1*%
%TO.N,/col19*%
X473008000Y-176680000D03*
%TD*%
%TO.P,K20,2*%
%TO.N,Net-(D20-Pad2)*%
X498608000Y-182420000D03*
%TO.P,K20,1*%
%TO.N,/col20*%
X492008000Y-182420000D03*
%TO.P,K20,2*%
%TO.N,Net-(D20-Pad2)*%
X498608000Y-176680000D03*
%TO.P,K20,1*%
%TO.N,/col20*%
X492008000Y-176680000D03*
%TD*%
%TO.P,K21,2*%
%TO.N,Net-(D21-Pad2)*%
X98908000Y-201420000D03*
%TO.P,K21,1*%
%TO.N,/col0*%
X92308000Y-201420000D03*
%TO.P,K21,2*%
%TO.N,Net-(D21-Pad2)*%
X98908000Y-195680000D03*
%TO.P,K21,1*%
%TO.N,/col0*%
X92308000Y-195680000D03*
%TD*%
%TO.P,K22,2*%
%TO.N,Net-(D22-Pad2)*%
X127408000Y-201420000D03*
%TO.P,K22,1*%
%TO.N,/col1*%
X120808000Y-201420000D03*
%TO.P,K22,2*%
%TO.N,Net-(D22-Pad2)*%
X127408000Y-195680000D03*
%TO.P,K22,1*%
%TO.N,/col1*%
X120808000Y-195680000D03*
%TD*%
%TO.P,K23,2*%
%TO.N,Net-(D23-Pad2)*%
X146408000Y-201420000D03*
%TO.P,K23,1*%
%TO.N,/col2*%
X139808000Y-201420000D03*
%TO.P,K23,2*%
%TO.N,Net-(D23-Pad2)*%
X146408000Y-195680000D03*
%TO.P,K23,1*%
%TO.N,/col2*%
X139808000Y-195680000D03*
%TD*%
%TO.P,K24,2*%
%TO.N,Net-(D24-Pad2)*%
X165408000Y-201420000D03*
%TO.P,K24,1*%
%TO.N,/col3*%
X158808000Y-201420000D03*
%TO.P,K24,2*%
%TO.N,Net-(D24-Pad2)*%
X165408000Y-195680000D03*
%TO.P,K24,1*%
%TO.N,/col3*%
X158808000Y-195680000D03*
%TD*%
%TO.P,K25,2*%
%TO.N,Net-(D25-Pad2)*%
X184408000Y-201420000D03*
%TO.P,K25,1*%
%TO.N,/col4*%
X177808000Y-201420000D03*
%TO.P,K25,2*%
%TO.N,Net-(D25-Pad2)*%
X184408000Y-195680000D03*
%TO.P,K25,1*%
%TO.N,/col4*%
X177808000Y-195680000D03*
%TD*%
%TO.P,K26,2*%
%TO.N,Net-(D26-Pad2)*%
X203408000Y-201420000D03*
%TO.P,K26,1*%
%TO.N,/col5*%
X196808000Y-201420000D03*
%TO.P,K26,2*%
%TO.N,Net-(D26-Pad2)*%
X203408000Y-195680000D03*
%TO.P,K26,1*%
%TO.N,/col5*%
X196808000Y-195680000D03*
%TD*%
%TO.P,K27,2*%
%TO.N,Net-(D27-Pad2)*%
X222408000Y-201420000D03*
%TO.P,K27,1*%
%TO.N,/col6*%
X215808000Y-201420000D03*
%TO.P,K27,2*%
%TO.N,Net-(D27-Pad2)*%
X222408000Y-195680000D03*
%TO.P,K27,1*%
%TO.N,/col6*%
X215808000Y-195680000D03*
%TD*%
%TO.P,K28,2*%
%TO.N,Net-(D28-Pad2)*%
X241408000Y-201420000D03*
%TO.P,K28,1*%
%TO.N,/col7*%
X234808000Y-201420000D03*
%TO.P,K28,2*%
%TO.N,Net-(D28-Pad2)*%
X241408000Y-195680000D03*
%TO.P,K28,1*%
%TO.N,/col7*%
X234808000Y-195680000D03*
%TD*%
%TO.P,K29,2*%
%TO.N,Net-(D29-Pad2)*%
X260408000Y-201420000D03*
%TO.P,K29,1*%
%TO.N,/col8*%
X253808000Y-201420000D03*
%TO.P,K29,2*%
%TO.N,Net-(D29-Pad2)*%
X260408000Y-195680000D03*
%TO.P,K29,1*%
%TO.N,/col8*%
X253808000Y-195680000D03*
%TD*%
%TO.P,K30,2*%
%TO.N,Net-(D30-Pad2)*%
X279408000Y-201420000D03*
%TO.P,K30,1*%
%TO.N,/col9*%
X272808000Y-201420000D03*
%TO.P,K30,2*%
%TO.N,Net-(D30-Pad2)*%
X279408000Y-195680000D03*
%TO.P,K30,1*%
%TO.N,/col9*%
X272808000Y-195680000D03*
%TD*%
%TO.P,K31,2*%
%TO.N,Net-(D31-Pad2)*%
X298408000Y-201420000D03*
%TO.P,K31,1*%
%TO.N,/col10*%
X291808000Y-201420000D03*
%TO.P,K31,2*%
%TO.N,Net-(D31-Pad2)*%
X298408000Y-195680000D03*
%TO.P,K31,1*%
%TO.N,/col10*%
X291808000Y-195680000D03*
%TD*%
%TO.P,K32,2*%
%TO.N,Net-(D32-Pad2)*%
X319783000Y-201420000D03*
%TO.P,K32,1*%
%TO.N,/col11*%
X313183000Y-201420000D03*
%TO.P,K32,2*%
%TO.N,Net-(D32-Pad2)*%
X319783000Y-195680000D03*
%TO.P,K32,1*%
%TO.N,/col11*%
X313183000Y-195680000D03*
%TD*%
%TO.P,K33,2*%
%TO.N,Net-(D33-Pad2)*%
X343533000Y-201420000D03*
%TO.P,K33,1*%
%TO.N,/col12*%
X336933000Y-201420000D03*
%TO.P,K33,2*%
%TO.N,Net-(D33-Pad2)*%
X343533000Y-195680000D03*
%TO.P,K33,1*%
%TO.N,/col12*%
X336933000Y-195680000D03*
%TD*%
%TO.P,K34,2*%
%TO.N,Net-(D34-Pad2)*%
X393808000Y-201420000D03*
%TO.P,K34,1*%
%TO.N,/col13*%
X387208000Y-201420000D03*
%TO.P,K34,2*%
%TO.N,Net-(D34-Pad2)*%
X393808000Y-195680000D03*
%TO.P,K34,1*%
%TO.N,/col13*%
X387208000Y-195680000D03*
%TD*%
%TO.P,K35,2*%
%TO.N,Net-(D35-Pad2)*%
X412808000Y-201420000D03*
%TO.P,K35,1*%
%TO.N,/col14*%
X406208000Y-201420000D03*
%TO.P,K35,2*%
%TO.N,Net-(D35-Pad2)*%
X412808000Y-195680000D03*
%TO.P,K35,1*%
%TO.N,/col14*%
X406208000Y-195680000D03*
%TD*%
%TO.P,K36,2*%
%TO.N,Net-(D36-Pad2)*%
X441608000Y-201420000D03*
%TO.P,K36,1*%
%TO.N,/col15*%
X435008000Y-201420000D03*
%TO.P,K36,2*%
%TO.N,Net-(D36-Pad2)*%
X441608000Y-195680000D03*
%TO.P,K36,1*%
%TO.N,/col15*%
X435008000Y-195680000D03*
%TD*%
%TO.P,K37,2*%
%TO.N,Net-(D37-Pad2)*%
X460608000Y-201420000D03*
%TO.P,K37,1*%
%TO.N,/col16*%
X454008000Y-201420000D03*
%TO.P,K37,2*%
%TO.N,Net-(D37-Pad2)*%
X460608000Y-195680000D03*
%TO.P,K37,1*%
%TO.N,/col16*%
X454008000Y-195680000D03*
%TD*%
%TO.P,K38,2*%
%TO.N,Net-(D38-Pad2)*%
X479608000Y-201420000D03*
%TO.P,K38,1*%
%TO.N,/col17*%
X473008000Y-201420000D03*
%TO.P,K38,2*%
%TO.N,Net-(D38-Pad2)*%
X479608000Y-195680000D03*
%TO.P,K38,1*%
%TO.N,/col17*%
X473008000Y-195680000D03*
%TD*%
%TO.P,K39,2*%
%TO.N,Net-(D39-Pad2)*%
X498608000Y-201420000D03*
%TO.P,K39,1*%
%TO.N,/col18*%
X492008000Y-201420000D03*
%TO.P,K39,2*%
%TO.N,Net-(D39-Pad2)*%
X498608000Y-195680000D03*
%TO.P,K39,1*%
%TO.N,/col18*%
X492008000Y-195680000D03*
%TD*%
%TO.P,K41,2*%
%TO.N,Net-(D41-Pad2)*%
X490421000Y-247100000D03*
%TO.P,K41,1*%
%TO.N,/col20*%
X490421000Y-240500000D03*
%TO.P,K41,2*%
%TO.N,Net-(D41-Pad2)*%
X496161000Y-247100000D03*
%TO.P,K41,1*%
%TO.N,/col20*%
X496161000Y-240500000D03*
%TD*%
%TO.P,K42,2*%
%TO.N,Net-(D42-Pad2)*%
X89408000Y-220420000D03*
%TO.P,K42,1*%
%TO.N,/col0*%
X82808000Y-220420000D03*
%TO.P,K42,2*%
%TO.N,Net-(D42-Pad2)*%
X89408000Y-214680000D03*
%TO.P,K42,1*%
%TO.N,/col0*%
X82808000Y-214680000D03*
%TD*%
%TO.P,K43,2*%
%TO.N,Net-(D43-Pad2)*%
X110783000Y-220420000D03*
%TO.P,K43,1*%
%TO.N,/col1*%
X104183000Y-220420000D03*
%TO.P,K43,2*%
%TO.N,Net-(D43-Pad2)*%
X110783000Y-214680000D03*
%TO.P,K43,1*%
%TO.N,/col1*%
X104183000Y-214680000D03*
%TD*%
%TO.P,K44,2*%
%TO.N,Net-(D44-Pad2)*%
X132158000Y-220420000D03*
%TO.P,K44,1*%
%TO.N,/col2*%
X125558000Y-220420000D03*
%TO.P,K44,2*%
%TO.N,Net-(D44-Pad2)*%
X132158000Y-214680000D03*
%TO.P,K44,1*%
%TO.N,/col2*%
X125558000Y-214680000D03*
%TD*%
%TO.P,K45,2*%
%TO.N,Net-(D45-Pad2)*%
X151158000Y-220420000D03*
%TO.P,K45,1*%
%TO.N,/col3*%
X144558000Y-220420000D03*
%TO.P,K45,2*%
%TO.N,Net-(D45-Pad2)*%
X151158000Y-214680000D03*
%TO.P,K45,1*%
%TO.N,/col3*%
X144558000Y-214680000D03*
%TD*%
%TO.P,K46,2*%
%TO.N,Net-(D46-Pad2)*%
X170158000Y-220420000D03*
%TO.P,K46,1*%
%TO.N,/col4*%
X163558000Y-220420000D03*
%TO.P,K46,2*%
%TO.N,Net-(D46-Pad2)*%
X170158000Y-214680000D03*
%TO.P,K46,1*%
%TO.N,/col4*%
X163558000Y-214680000D03*
%TD*%
%TO.P,K47,2*%
%TO.N,Net-(D47-Pad2)*%
X189158000Y-220420000D03*
%TO.P,K47,1*%
%TO.N,/col5*%
X182558000Y-220420000D03*
%TO.P,K47,2*%
%TO.N,Net-(D47-Pad2)*%
X189158000Y-214680000D03*
%TO.P,K47,1*%
%TO.N,/col5*%
X182558000Y-214680000D03*
%TD*%
%TO.P,K49,2*%
%TO.N,Net-(D49-Pad2)*%
X208158000Y-220420000D03*
%TO.P,K49,1*%
%TO.N,/col6*%
X201558000Y-220420000D03*
%TO.P,K49,2*%
%TO.N,Net-(D49-Pad2)*%
X208158000Y-214680000D03*
%TO.P,K49,1*%
%TO.N,/col6*%
X201558000Y-214680000D03*
%TD*%
%TO.P,K50,2*%
%TO.N,Net-(D50-Pad2)*%
X227158000Y-220420000D03*
%TO.P,K50,1*%
%TO.N,/col7*%
X220558000Y-220420000D03*
%TO.P,K50,2*%
%TO.N,Net-(D50-Pad2)*%
X227158000Y-214680000D03*
%TO.P,K50,1*%
%TO.N,/col7*%
X220558000Y-214680000D03*
%TD*%
%TO.P,K51,2*%
%TO.N,Net-(D51-Pad2)*%
X246158000Y-220420000D03*
%TO.P,K51,1*%
%TO.N,/col8*%
X239558000Y-220420000D03*
%TO.P,K51,2*%
%TO.N,Net-(D51-Pad2)*%
X246158000Y-214680000D03*
%TO.P,K51,1*%
%TO.N,/col8*%
X239558000Y-214680000D03*
%TD*%
%TO.P,K52,2*%
%TO.N,Net-(D52-Pad2)*%
X265158000Y-220420000D03*
%TO.P,K52,1*%
%TO.N,/col9*%
X258558000Y-220420000D03*
%TO.P,K52,2*%
%TO.N,Net-(D52-Pad2)*%
X265158000Y-214680000D03*
%TO.P,K52,1*%
%TO.N,/col9*%
X258558000Y-214680000D03*
%TD*%
%TO.P,K53,2*%
%TO.N,Net-(D53-Pad2)*%
X284158000Y-220420000D03*
%TO.P,K53,1*%
%TO.N,/col10*%
X277558000Y-220420000D03*
%TO.P,K53,2*%
%TO.N,Net-(D53-Pad2)*%
X284158000Y-214680000D03*
%TO.P,K53,1*%
%TO.N,/col10*%
X277558000Y-214680000D03*
%TD*%
%TO.P,K54,2*%
%TO.N,Net-(D54-Pad2)*%
X305533000Y-220420000D03*
%TO.P,K54,1*%
%TO.N,/col11*%
X298933000Y-220420000D03*
%TO.P,K54,2*%
%TO.N,Net-(D54-Pad2)*%
X305533000Y-214680000D03*
%TO.P,K54,1*%
%TO.N,/col11*%
X298933000Y-214680000D03*
%TD*%
%TO.P,K55,2*%
%TO.N,Net-(D55-Pad2)*%
X329283000Y-220420000D03*
%TO.P,K55,1*%
%TO.N,/col12*%
X322683000Y-220420000D03*
%TO.P,K55,2*%
%TO.N,Net-(D55-Pad2)*%
X329283000Y-214680000D03*
%TO.P,K55,1*%
%TO.N,/col12*%
X322683000Y-214680000D03*
%TD*%
%TO.P,K56,2*%
%TO.N,Net-(D56-Pad2)*%
X357783000Y-220420000D03*
%TO.P,K56,1*%
%TO.N,/col13*%
X351183000Y-220420000D03*
%TO.P,K56,2*%
%TO.N,Net-(D56-Pad2)*%
X357783000Y-214680000D03*
%TO.P,K56,1*%
%TO.N,/col13*%
X351183000Y-214680000D03*
%TD*%
%TO.P,K57,2*%
%TO.N,Net-(D57-Pad2)*%
X393808000Y-220420000D03*
%TO.P,K57,1*%
%TO.N,/col14*%
X387208000Y-220420000D03*
%TO.P,K57,2*%
%TO.N,Net-(D57-Pad2)*%
X393808000Y-214680000D03*
%TO.P,K57,1*%
%TO.N,/col14*%
X387208000Y-214680000D03*
%TD*%
%TO.P,K58,2*%
%TO.N,Net-(D58-Pad2)*%
X412808000Y-220420000D03*
%TO.P,K58,1*%
%TO.N,/col15*%
X406208000Y-220420000D03*
%TO.P,K58,2*%
%TO.N,Net-(D58-Pad2)*%
X412808000Y-214680000D03*
%TO.P,K58,1*%
%TO.N,/col15*%
X406208000Y-214680000D03*
%TD*%
%TO.P,K59,2*%
%TO.N,Net-(D59-Pad2)*%
X441608000Y-220420000D03*
%TO.P,K59,1*%
%TO.N,/col16*%
X435008000Y-220420000D03*
%TO.P,K59,2*%
%TO.N,Net-(D59-Pad2)*%
X441608000Y-214680000D03*
%TO.P,K59,1*%
%TO.N,/col16*%
X435008000Y-214680000D03*
%TD*%
%TO.P,K60,2*%
%TO.N,Net-(D60-Pad2)*%
X460608000Y-220420000D03*
%TO.P,K60,1*%
%TO.N,/col17*%
X454008000Y-220420000D03*
%TO.P,K60,2*%
%TO.N,Net-(D60-Pad2)*%
X460608000Y-214680000D03*
%TO.P,K60,1*%
%TO.N,/col17*%
X454008000Y-214680000D03*
%TD*%
%TO.P,K61,2*%
%TO.N,Net-(D61-Pad2)*%
X479608000Y-220420000D03*
%TO.P,K61,1*%
%TO.N,/col18*%
X473008000Y-220420000D03*
%TO.P,K61,2*%
%TO.N,Net-(D61-Pad2)*%
X479608000Y-214680000D03*
%TO.P,K61,1*%
%TO.N,/col18*%
X473008000Y-214680000D03*
%TD*%
%TO.P,K62,2*%
%TO.N,Net-(D62-Pad2)*%
X498608000Y-220420000D03*
%TO.P,K62,1*%
%TO.N,/col19*%
X492008000Y-220420000D03*
%TO.P,K62,2*%
%TO.N,Net-(D62-Pad2)*%
X498608000Y-214680000D03*
%TO.P,K62,1*%
%TO.N,/col19*%
X492008000Y-214680000D03*
%TD*%
%TO.P,K63,2*%
%TO.N,Net-(D63-Pad2)*%
X479608000Y-258420000D03*
%TO.P,K63,1*%
%TO.N,/col20*%
X473008000Y-258420000D03*
%TO.P,K63,2*%
%TO.N,Net-(D63-Pad2)*%
X479608000Y-252680000D03*
%TO.P,K63,1*%
%TO.N,/col20*%
X473008000Y-252680000D03*
%TD*%
%TO.P,K64,2*%
%TO.N,Net-(D64-Pad2)*%
X89408000Y-239420000D03*
%TO.P,K64,1*%
%TO.N,/col0*%
X82808000Y-239420000D03*
%TO.P,K64,2*%
%TO.N,Net-(D64-Pad2)*%
X89408000Y-233680000D03*
%TO.P,K64,1*%
%TO.N,/col0*%
X82808000Y-233680000D03*
%TD*%
%TO.P,K65,2*%
%TO.N,Net-(D65-Pad2)*%
X115533000Y-239420000D03*
%TO.P,K65,1*%
%TO.N,/col1*%
X108933000Y-239420000D03*
%TO.P,K65,2*%
%TO.N,Net-(D65-Pad2)*%
X115533000Y-233680000D03*
%TO.P,K65,1*%
%TO.N,/col1*%
X108933000Y-233680000D03*
%TD*%
%TO.P,K66,2*%
%TO.N,Net-(D66-Pad2)*%
X141658000Y-239420000D03*
%TO.P,K66,1*%
%TO.N,/col2*%
X135058000Y-239420000D03*
%TO.P,K66,2*%
%TO.N,Net-(D66-Pad2)*%
X141658000Y-233680000D03*
%TO.P,K66,1*%
%TO.N,/col2*%
X135058000Y-233680000D03*
%TD*%
%TO.P,K67,2*%
%TO.N,Net-(D67-Pad2)*%
X160658000Y-239420000D03*
%TO.P,K67,1*%
%TO.N,/col3*%
X154058000Y-239420000D03*
%TO.P,K67,2*%
%TO.N,Net-(D67-Pad2)*%
X160658000Y-233680000D03*
%TO.P,K67,1*%
%TO.N,/col3*%
X154058000Y-233680000D03*
%TD*%
%TO.P,K68,2*%
%TO.N,Net-(D68-Pad2)*%
X179658000Y-239420000D03*
%TO.P,K68,1*%
%TO.N,/col4*%
X173058000Y-239420000D03*
%TO.P,K68,2*%
%TO.N,Net-(D68-Pad2)*%
X179658000Y-233680000D03*
%TO.P,K68,1*%
%TO.N,/col4*%
X173058000Y-233680000D03*
%TD*%
%TO.P,K69,2*%
%TO.N,Net-(D69-Pad2)*%
X198658000Y-239420000D03*
%TO.P,K69,1*%
%TO.N,/col5*%
X192058000Y-239420000D03*
%TO.P,K69,2*%
%TO.N,Net-(D69-Pad2)*%
X198658000Y-233680000D03*
%TO.P,K69,1*%
%TO.N,/col5*%
X192058000Y-233680000D03*
%TD*%
%TO.P,K70,2*%
%TO.N,Net-(D70-Pad2)*%
X217658000Y-239420000D03*
%TO.P,K70,1*%
%TO.N,/col6*%
X211058000Y-239420000D03*
%TO.P,K70,2*%
%TO.N,Net-(D70-Pad2)*%
X217658000Y-233680000D03*
%TO.P,K70,1*%
%TO.N,/col6*%
X211058000Y-233680000D03*
%TD*%
%TO.P,K71,2*%
%TO.N,Net-(D71-Pad2)*%
X227158000Y-258420000D03*
%TO.P,K71,1*%
%TO.N,/col7*%
X220558000Y-258420000D03*
%TO.P,K71,2*%
%TO.N,Net-(D71-Pad2)*%
X227158000Y-252680000D03*
%TO.P,K71,1*%
%TO.N,/col7*%
X220558000Y-252680000D03*
%TD*%
%TO.P,K72,2*%
%TO.N,Net-(D72-Pad2)*%
X236658000Y-239420000D03*
%TO.P,K72,1*%
%TO.N,/col8*%
X230058000Y-239420000D03*
%TO.P,K72,2*%
%TO.N,Net-(D72-Pad2)*%
X236658000Y-233680000D03*
%TO.P,K72,1*%
%TO.N,/col8*%
X230058000Y-233680000D03*
%TD*%
%TO.P,K73,2*%
%TO.N,Net-(D73-Pad2)*%
X255658000Y-239420000D03*
%TO.P,K73,1*%
%TO.N,/col9*%
X249058000Y-239420000D03*
%TO.P,K73,2*%
%TO.N,Net-(D73-Pad2)*%
X255658000Y-233680000D03*
%TO.P,K73,1*%
%TO.N,/col9*%
X249058000Y-233680000D03*
%TD*%
%TO.P,K74,2*%
%TO.N,Net-(D74-Pad2)*%
X274658000Y-239420000D03*
%TO.P,K74,1*%
%TO.N,/col10*%
X268058000Y-239420000D03*
%TO.P,K74,2*%
%TO.N,Net-(D74-Pad2)*%
X274658000Y-233680000D03*
%TO.P,K74,1*%
%TO.N,/col10*%
X268058000Y-233680000D03*
%TD*%
%TO.P,K75,2*%
%TO.N,Net-(D75-Pad2)*%
X293658000Y-239420000D03*
%TO.P,K75,1*%
%TO.N,/col11*%
X287058000Y-239420000D03*
%TO.P,K75,2*%
%TO.N,Net-(D75-Pad2)*%
X293658000Y-233680000D03*
%TO.P,K75,1*%
%TO.N,/col11*%
X287058000Y-233680000D03*
%TD*%
%TO.P,K76,2*%
%TO.N,Net-(D76-Pad2)*%
X312658000Y-239420000D03*
%TO.P,K76,1*%
%TO.N,/col12*%
X306058000Y-239420000D03*
%TO.P,K76,2*%
%TO.N,Net-(D76-Pad2)*%
X312658000Y-233680000D03*
%TO.P,K76,1*%
%TO.N,/col12*%
X306058000Y-233680000D03*
%TD*%
%TO.P,K77,2*%
%TO.N,Net-(D77-Pad2)*%
X338783000Y-239420000D03*
%TO.P,K77,1*%
%TO.N,/col13*%
X332183000Y-239420000D03*
%TO.P,K77,2*%
%TO.N,Net-(D77-Pad2)*%
X338783000Y-233680000D03*
%TO.P,K77,1*%
%TO.N,/col13*%
X332183000Y-233680000D03*
%TD*%
%TO.P,K78,2*%
%TO.N,Net-(D78-Pad2)*%
X364908000Y-239420000D03*
%TO.P,K78,1*%
%TO.N,/col14*%
X358308000Y-239420000D03*
%TO.P,K78,2*%
%TO.N,Net-(D78-Pad2)*%
X364908000Y-233680000D03*
%TO.P,K78,1*%
%TO.N,/col14*%
X358308000Y-233680000D03*
%TD*%
%TO.P,K79,2*%
%TO.N,Net-(D79-Pad2)*%
X393808000Y-239420000D03*
%TO.P,K79,1*%
%TO.N,/col15*%
X387208000Y-239420000D03*
%TO.P,K79,2*%
%TO.N,Net-(D79-Pad2)*%
X393808000Y-233680000D03*
%TO.P,K79,1*%
%TO.N,/col15*%
X387208000Y-233680000D03*
%TD*%
%TO.P,K80,2*%
%TO.N,Net-(D80-Pad2)*%
X412808000Y-239420000D03*
%TO.P,K80,1*%
%TO.N,/col16*%
X406208000Y-239420000D03*
%TO.P,K80,2*%
%TO.N,Net-(D80-Pad2)*%
X412808000Y-233680000D03*
%TO.P,K80,1*%
%TO.N,/col16*%
X406208000Y-233680000D03*
%TD*%
%TO.P,K81,2*%
%TO.N,Net-(D81-Pad2)*%
X441608000Y-239420000D03*
%TO.P,K81,1*%
%TO.N,/col17*%
X435008000Y-239420000D03*
%TO.P,K81,2*%
%TO.N,Net-(D81-Pad2)*%
X441608000Y-233680000D03*
%TO.P,K81,1*%
%TO.N,/col17*%
X435008000Y-233680000D03*
%TD*%
%TO.P,K82,2*%
%TO.N,Net-(D82-Pad2)*%
X460608000Y-239420000D03*
%TO.P,K82,1*%
%TO.N,/col18*%
X454008000Y-239420000D03*
%TO.P,K82,2*%
%TO.N,Net-(D82-Pad2)*%
X460608000Y-233680000D03*
%TO.P,K82,1*%
%TO.N,/col18*%
X454008000Y-233680000D03*
%TD*%
%TO.P,K83,2*%
%TO.N,Net-(D83-Pad2)*%
X479608000Y-239420000D03*
%TO.P,K83,1*%
%TO.N,/col19*%
X473008000Y-239420000D03*
%TO.P,K83,2*%
%TO.N,Net-(D83-Pad2)*%
X479608000Y-233680000D03*
%TO.P,K83,1*%
%TO.N,/col19*%
X473008000Y-233680000D03*
%TD*%
%TO.P,K84,2*%
%TO.N,Net-(D84-Pad2)*%
X451108000Y-258420000D03*
%TO.P,K84,1*%
%TO.N,/col20*%
X444508000Y-258420000D03*
%TO.P,K84,2*%
%TO.N,Net-(D84-Pad2)*%
X451108000Y-252680000D03*
%TO.P,K84,1*%
%TO.N,/col20*%
X444508000Y-252680000D03*
%TD*%
D15*
%TO.P,U0,31*%
%TO.N,/row0*%
X226314000Y-144526000D03*
%TO.P,U0,30*%
%TO.N,Net-(U0-Pad30)*%
X226314000Y-154686000D03*
%TO.P,U0,29*%
%TO.N,Net-(U0-Pad29)*%
X216154000Y-141986000D03*
%TO.P,U0,28*%
%TO.N,/row1*%
X218694000Y-141986000D03*
%TO.P,U0,27*%
%TO.N,/row2*%
X221234000Y-141986000D03*
%TO.P,U0,26*%
%TO.N,/row3*%
X223774000Y-141986000D03*
%TO.P,U0,25*%
%TO.N,/col20*%
X226314000Y-141986000D03*
%TO.P,U0,24*%
%TO.N,/col19*%
X228854000Y-141986000D03*
%TO.P,U0,23*%
%TO.N,/col18*%
X231394000Y-141986000D03*
%TO.P,U0,22*%
%TO.N,/col17*%
X233934000Y-141986000D03*
%TO.P,U0,21*%
%TO.N,/col16*%
X236474000Y-141986000D03*
%TO.P,U0,20*%
%TO.N,/col15*%
X239014000Y-141986000D03*
%TO.P,U0,19*%
%TO.N,/col14*%
X241554000Y-141986000D03*
%TO.P,U0,18*%
%TO.N,/col13*%
X244094000Y-141986000D03*
%TO.P,U0,17*%
%TO.N,/col12*%
X244094000Y-144526000D03*
%TO.P,U0,16*%
%TO.N,Net-(U0-Pad16)*%
X244094000Y-147066000D03*
%TO.P,U0,14*%
%TO.N,Net-(U0-Pad14)*%
X244094000Y-152146000D03*
%TO.P,U0,13*%
%TO.N,/col11*%
X244094000Y-154686000D03*
%TO.P,U0,12*%
%TO.N,/col10*%
X244094000Y-157226000D03*
%TO.P,U0,11*%
%TO.N,/col9*%
X241554000Y-157226000D03*
%TO.P,U0,10*%
%TO.N,/col8*%
X239014000Y-157226000D03*
%TO.P,U0,9*%
%TO.N,/col7*%
X236474000Y-157226000D03*
%TO.P,U0,8*%
%TO.N,/col6*%
X233934000Y-157226000D03*
%TO.P,U0,7*%
%TO.N,/col5*%
X231394000Y-157226000D03*
%TO.P,U0,6*%
%TO.N,/col4*%
X228854000Y-157226000D03*
%TO.P,U0,5*%
%TO.N,/col3*%
X226314000Y-157226000D03*
%TO.P,U0,4*%
%TO.N,/col2*%
X223774000Y-157226000D03*
%TO.P,U0,3*%
%TO.N,/col1*%
X221234000Y-157226000D03*
%TO.P,U0,2*%
%TO.N,/col0*%
X218694000Y-157226000D03*
D16*
%TO.P,U0,1*%
%TO.N,Net-(U0-Pad1)*%
X216154000Y-157226000D03*
D15*
%TO.P,U0,15*%
%TO.N,Net-(U0-Pad15)*%
X244094000Y-149606000D03*
%TD*%
D19*
%TO.N,Net-(D0-Pad2)*%
X89408000Y-176680000D02*
X89408000Y-182420000D01*
X93308000Y-186320000D02*
X93308000Y-186730000D01*
X89408000Y-182420000D02*
X93308000Y-186320000D01*
%TO.N,/row0*%
X494708000Y-186730000D02*
X494708000Y-187028000D01*
X494708000Y-187028000D02*
X490982000Y-190754000D01*
X479732000Y-190754000D02*
X475708000Y-186730000D01*
X490982000Y-190754000D02*
X479732000Y-190754000D01*
X475708000Y-186730000D02*
X475702000Y-186730000D01*
X475702000Y-186730000D02*
X471932000Y-190500000D01*
X460478000Y-190500000D02*
X456708000Y-186730000D01*
X471932000Y-190500000D02*
X460478000Y-190500000D01*
X456708000Y-186730000D02*
X456652000Y-186730000D01*
X456652000Y-186730000D02*
X452882000Y-190500000D01*
X441478000Y-190500000D02*
X437708000Y-186730000D01*
X452882000Y-190500000D02*
X441478000Y-190500000D01*
X437708000Y-186730000D02*
X437602000Y-186730000D01*
X437602000Y-186730000D02*
X433578000Y-190754000D01*
X412932000Y-190754000D02*
X408908000Y-186730000D01*
X433578000Y-190754000D02*
X412932000Y-190754000D01*
X408908000Y-186730000D02*
X408908000Y-186976000D01*
X408908000Y-186976000D02*
X405384000Y-190500000D01*
X393678000Y-190500000D02*
X389908000Y-186730000D01*
X405384000Y-190500000D02*
X393678000Y-190500000D01*
X389908000Y-186730000D02*
X379690000Y-186730000D01*
X379690000Y-186730000D02*
X375920000Y-190500000D01*
X364778000Y-190500000D02*
X361008000Y-186730000D01*
X375920000Y-190500000D02*
X364778000Y-190500000D01*
X345778000Y-190500000D02*
X342008000Y-186730000D01*
X357632000Y-190500000D02*
X345778000Y-190500000D01*
X361008000Y-187124000D02*
X357632000Y-190500000D01*
X361008000Y-186730000D02*
X361008000Y-187124000D01*
X342008000Y-186730000D02*
X341844000Y-186730000D01*
X341844000Y-186730000D02*
X337820000Y-190754000D01*
X327032000Y-190754000D02*
X323008000Y-186730000D01*
X337820000Y-190754000D02*
X327032000Y-190754000D01*
X298998000Y-186730000D02*
X304008000Y-186730000D01*
X295910000Y-183642000D02*
X298998000Y-186730000D01*
X313182000Y-175768000D02*
X310642000Y-173228000D01*
X313182000Y-181610000D02*
X313182000Y-175768000D01*
X310642000Y-173228000D02*
X298196000Y-173228000D01*
X318302000Y-186730000D02*
X313182000Y-181610000D01*
X295910000Y-175514000D02*
X295910000Y-183642000D01*
X298196000Y-173228000D02*
X295910000Y-175514000D01*
X323008000Y-186730000D02*
X318302000Y-186730000D01*
X304008000Y-186730000D02*
X298664000Y-186730000D01*
X298664000Y-186730000D02*
X294894000Y-190500000D01*
X288778000Y-190500000D02*
X285008000Y-186730000D01*
X294894000Y-190500000D02*
X288778000Y-190500000D01*
X285008000Y-186730000D02*
X284948000Y-186730000D01*
X284948000Y-186730000D02*
X280924000Y-190754000D01*
X270032000Y-190754000D02*
X266008000Y-186730000D01*
X280924000Y-190754000D02*
X270032000Y-190754000D01*
X267208000Y-186730000D02*
X266152000Y-186730000D01*
X266152000Y-186730000D02*
X262128000Y-190754000D01*
X251032000Y-190754000D02*
X247008000Y-186730000D01*
X262128000Y-190754000D02*
X251032000Y-190754000D01*
X247008000Y-186730000D02*
X247008000Y-186824000D01*
X247008000Y-186824000D02*
X243078000Y-190754000D01*
X232032000Y-190754000D02*
X228008000Y-186730000D01*
X243078000Y-190754000D02*
X232032000Y-190754000D01*
X228008000Y-186730000D02*
X227798000Y-186730000D01*
X227798000Y-186730000D02*
X224282000Y-190246000D01*
X212524000Y-190246000D02*
X209008000Y-186730000D01*
X224282000Y-190246000D02*
X212524000Y-190246000D01*
X209008000Y-186730000D02*
X202986000Y-186730000D01*
X202986000Y-186730000D02*
X200152000Y-183896000D01*
X200152000Y-183896000D02*
X200152000Y-175514000D01*
X200152000Y-175514000D02*
X197104000Y-172466000D01*
X197104000Y-172466000D02*
X185420000Y-172466000D01*
X185420000Y-172466000D02*
X182880000Y-175006000D01*
X182880000Y-175006000D02*
X182880000Y-183896000D01*
X185714000Y-186730000D02*
X190008000Y-186730000D01*
X182880000Y-183896000D02*
X185714000Y-186730000D01*
X190008000Y-186730000D02*
X185888000Y-186730000D01*
X185888000Y-186730000D02*
X182372000Y-190246000D01*
X174524000Y-190246000D02*
X171008000Y-186730000D01*
X182372000Y-190246000D02*
X174524000Y-190246000D01*
X171008000Y-186730000D02*
X171008000Y-186878000D01*
X171008000Y-186878000D02*
X167132000Y-190754000D01*
X156032000Y-190754000D02*
X152008000Y-186730000D01*
X167132000Y-190754000D02*
X156032000Y-190754000D01*
X152008000Y-186730000D02*
X151852000Y-186730000D01*
X151852000Y-186730000D02*
X148082000Y-190500000D01*
X136778000Y-190500000D02*
X133008000Y-186730000D01*
X148082000Y-190500000D02*
X136778000Y-190500000D01*
X133008000Y-186730000D02*
X133008000Y-188048000D01*
X133008000Y-188048000D02*
X130302000Y-190754000D01*
X113282000Y-190754000D02*
X109258000Y-186730000D01*
X130302000Y-190754000D02*
X113282000Y-190754000D01*
X109258000Y-186730000D02*
X109258000Y-186906000D01*
X109258000Y-186906000D02*
X105664000Y-190500000D01*
X89278000Y-190500000D02*
X85508000Y-186730000D01*
X105664000Y-190500000D02*
X89278000Y-190500000D01*
X186944000Y-166116000D02*
X208534000Y-144526000D01*
X87122000Y-166116000D02*
X186944000Y-166116000D01*
X79502000Y-173736000D02*
X87122000Y-166116000D01*
X208534000Y-144526000D02*
X226314000Y-144526000D01*
X79502000Y-185500000D02*
X79502000Y-173736000D01*
X80732000Y-186730000D02*
X79502000Y-185500000D01*
X85508000Y-186730000D02*
X80732000Y-186730000D01*
%TO.N,Net-(D1-Pad2)*%
X113158000Y-176680000D02*
X113158000Y-182420000D01*
X117058000Y-186320000D02*
X117058000Y-186730000D01*
X113158000Y-182420000D02*
X117058000Y-186320000D01*
%TO.N,Net-(D2-Pad2)*%
X136908000Y-176680000D02*
X136908000Y-182420000D01*
X140808000Y-186320000D02*
X140808000Y-186730000D01*
X136908000Y-182420000D02*
X140808000Y-186320000D01*
%TO.N,Net-(D3-Pad2)*%
X155908000Y-176680000D02*
X155908000Y-182420000D01*
X159808000Y-186320000D02*
X159808000Y-186730000D01*
X155908000Y-182420000D02*
X159808000Y-186320000D01*
%TO.N,Net-(D4-Pad2)*%
X174908000Y-176680000D02*
X174908000Y-182420000D01*
X178808000Y-186320000D02*
X178808000Y-186730000D01*
X174908000Y-182420000D02*
X178808000Y-186320000D01*
%TO.N,Net-(D5-Pad2)*%
X193908000Y-176680000D02*
X193908000Y-182420000D01*
X197808000Y-186320000D02*
X197808000Y-186730000D01*
X193908000Y-182420000D02*
X197808000Y-186320000D01*
%TO.N,Net-(D6-Pad2)*%
X212908000Y-176680000D02*
X212908000Y-182420000D01*
X216808000Y-186320000D02*
X216808000Y-186730000D01*
X212908000Y-182420000D02*
X216808000Y-186320000D01*
%TO.N,Net-(D7-Pad2)*%
X231908000Y-176680000D02*
X231908000Y-182420000D01*
X235808000Y-186320000D02*
X235808000Y-186730000D01*
X231908000Y-182420000D02*
X235808000Y-186320000D01*
%TO.N,Net-(D8-Pad2)*%
X250908000Y-176680000D02*
X250908000Y-182420000D01*
X254808000Y-186320000D02*
X254808000Y-186730000D01*
X250908000Y-182420000D02*
X254808000Y-186320000D01*
%TO.N,Net-(D9-Pad2)*%
X269908000Y-176680000D02*
X269908000Y-182420000D01*
X273808000Y-186320000D02*
X273808000Y-186730000D01*
X269908000Y-182420000D02*
X273808000Y-186320000D01*
%TO.N,Net-(D10-Pad2)*%
X288908000Y-176680000D02*
X288908000Y-182420000D01*
X292808000Y-186320000D02*
X292808000Y-186730000D01*
X288908000Y-182420000D02*
X292808000Y-186320000D01*
%TO.N,Net-(D11-Pad2)*%
X307908000Y-176680000D02*
X307908000Y-182420000D01*
X311808000Y-186320000D02*
X311808000Y-186730000D01*
X307908000Y-182420000D02*
X311808000Y-186320000D01*
%TO.N,Net-(D12-Pad2)*%
X326908000Y-176680000D02*
X326908000Y-182420000D01*
X330808000Y-186320000D02*
X330808000Y-186730000D01*
X326908000Y-182420000D02*
X330808000Y-186320000D01*
%TO.N,Net-(D13-Pad2)*%
X345908000Y-176680000D02*
X345908000Y-182420000D01*
X349808000Y-186320000D02*
X349808000Y-186730000D01*
X345908000Y-182420000D02*
X349808000Y-186320000D01*
%TO.N,Net-(D14-Pad2)*%
X364908000Y-176680000D02*
X364908000Y-182420000D01*
X368808000Y-186320000D02*
X368808000Y-186730000D01*
X364908000Y-182420000D02*
X368808000Y-186320000D01*
%TO.N,Net-(D15-Pad2)*%
X393808000Y-176680000D02*
X393808000Y-182420000D01*
X397708000Y-186320000D02*
X397708000Y-186730000D01*
X393808000Y-182420000D02*
X397708000Y-186320000D01*
%TO.N,Net-(D16-Pad2)*%
X412808000Y-176680000D02*
X412808000Y-182420000D01*
X416708000Y-186320000D02*
X416708000Y-186730000D01*
X412808000Y-182420000D02*
X416708000Y-186320000D01*
%TO.N,Net-(D17-Pad2)*%
X441608000Y-176680000D02*
X441608000Y-182420000D01*
X445508000Y-186320000D02*
X445508000Y-186730000D01*
X441608000Y-182420000D02*
X445508000Y-186320000D01*
%TO.N,Net-(D18-Pad2)*%
X460608000Y-176680000D02*
X460608000Y-182420000D01*
X464508000Y-186320000D02*
X464508000Y-186730000D01*
X460608000Y-182420000D02*
X464508000Y-186320000D01*
%TO.N,Net-(D19-Pad2)*%
X479608000Y-176680000D02*
X479608000Y-182420000D01*
X483508000Y-186320000D02*
X483508000Y-186730000D01*
X479608000Y-182420000D02*
X483508000Y-186320000D01*
%TO.N,Net-(D20-Pad2)*%
X498608000Y-176680000D02*
X498608000Y-182420000D01*
X502508000Y-186320000D02*
X502508000Y-186730000D01*
X498608000Y-182420000D02*
X502508000Y-186320000D01*
%TO.N,Net-(D21-Pad2)*%
X98908000Y-195680000D02*
X98908000Y-201420000D01*
X102808000Y-205320000D02*
X102808000Y-205730000D01*
X98908000Y-201420000D02*
X102808000Y-205320000D01*
%TO.N,/row1*%
X95008000Y-205730000D02*
X90668000Y-205730000D01*
X90668000Y-205730000D02*
X88900000Y-203962000D01*
X88900000Y-203962000D02*
X88900000Y-193548000D01*
X88900000Y-193548000D02*
X90424000Y-192024000D01*
X115814000Y-205730000D02*
X123508000Y-205730000D01*
X102108000Y-192024000D02*
X115814000Y-205730000D01*
X123508000Y-205730000D02*
X123508000Y-207582000D01*
X123508000Y-207582000D02*
X126238000Y-210312000D01*
X137926000Y-210312000D02*
X142508000Y-205730000D01*
X126238000Y-210312000D02*
X137926000Y-210312000D01*
X142508000Y-205730000D02*
X142508000Y-205754000D01*
X142508000Y-205754000D02*
X147066000Y-210312000D01*
X156926000Y-210312000D02*
X161508000Y-205730000D01*
X147066000Y-210312000D02*
X156926000Y-210312000D01*
X161508000Y-205730000D02*
X161508000Y-205958000D01*
X161508000Y-205958000D02*
X165862000Y-210312000D01*
X175926000Y-210312000D02*
X180508000Y-205730000D01*
X165862000Y-210312000D02*
X175926000Y-210312000D01*
X180508000Y-205730000D02*
X180508000Y-205908000D01*
X180508000Y-205908000D02*
X184404000Y-209804000D01*
X195434000Y-209804000D02*
X199508000Y-205730000D01*
X184404000Y-209804000D02*
X195434000Y-209804000D01*
X199508000Y-205730000D02*
X199508000Y-205858000D01*
X199508000Y-205858000D02*
X203708000Y-210058000D01*
X214180000Y-210058000D02*
X218508000Y-205730000D01*
X203708000Y-210058000D02*
X214180000Y-210058000D01*
X218508000Y-205730000D02*
X218508000Y-205808000D01*
X218508000Y-205808000D02*
X223012000Y-210312000D01*
X232926000Y-210312000D02*
X237508000Y-205730000D01*
X223012000Y-210312000D02*
X232926000Y-210312000D01*
X237508000Y-205730000D02*
X237508000Y-206012000D01*
X237508000Y-206012000D02*
X241554000Y-210058000D01*
X252180000Y-210058000D02*
X256508000Y-205730000D01*
X241554000Y-210058000D02*
X252180000Y-210058000D01*
X256508000Y-205730000D02*
X256530000Y-205730000D01*
X256530000Y-205730000D02*
X259842000Y-209042000D01*
X259842000Y-209042000D02*
X263906000Y-209042000D01*
X267218000Y-205730000D02*
X275508000Y-205730000D01*
X263906000Y-209042000D02*
X267218000Y-205730000D01*
X275508000Y-205730000D02*
X275508000Y-207690000D01*
X275508000Y-207690000D02*
X277876000Y-210058000D01*
X290180000Y-210058000D02*
X294508000Y-205730000D01*
X277876000Y-210058000D02*
X290180000Y-210058000D01*
X294508000Y-205730000D02*
X294508000Y-205862000D01*
X294508000Y-205862000D02*
X298704000Y-210058000D01*
X311555000Y-210058000D02*
X315883000Y-205730000D01*
X298704000Y-210058000D02*
X311555000Y-210058000D01*
X315883000Y-205730000D02*
X315883000Y-205901000D01*
X315883000Y-205901000D02*
X320040000Y-210058000D01*
X335305000Y-210058000D02*
X339633000Y-205730000D01*
X320040000Y-210058000D02*
X335305000Y-210058000D01*
X339633000Y-205730000D02*
X339633000Y-205775000D01*
X339633000Y-205775000D02*
X343916000Y-210058000D01*
X385580000Y-210058000D02*
X389908000Y-205730000D01*
X343916000Y-210058000D02*
X385580000Y-210058000D01*
X389908000Y-205730000D02*
X389908000Y-205758000D01*
X389908000Y-205758000D02*
X394208000Y-210058000D01*
X404580000Y-210058000D02*
X408908000Y-205730000D01*
X394208000Y-210058000D02*
X404580000Y-210058000D01*
X408908000Y-205730000D02*
X409184000Y-205730000D01*
X409184000Y-205730000D02*
X413766000Y-210312000D01*
X413766000Y-210312000D02*
X426466000Y-210312000D01*
X431048000Y-205730000D02*
X437708000Y-205730000D01*
X426466000Y-210312000D02*
X431048000Y-205730000D01*
X437708000Y-205730000D02*
X437708000Y-205806000D01*
X437708000Y-205806000D02*
X441198000Y-209296000D01*
X453142000Y-209296000D02*
X456708000Y-205730000D01*
X441198000Y-209296000D02*
X453142000Y-209296000D01*
X456708000Y-205730000D02*
X456708000Y-206772000D01*
X456708000Y-206772000D02*
X459232000Y-209296000D01*
X472142000Y-209296000D02*
X475708000Y-205730000D01*
X459232000Y-209296000D02*
X472142000Y-209296000D01*
X475708000Y-205730000D02*
X475708000Y-206722000D01*
X475708000Y-206722000D02*
X478282000Y-209296000D01*
X478282000Y-209296000D02*
X485140000Y-209296000D01*
X488706000Y-205730000D02*
X494708000Y-205730000D01*
X485140000Y-209296000D02*
X488706000Y-205730000D01*
X494708000Y-205730000D02*
X494708000Y-206418000D01*
X494708000Y-206418000D02*
X498602000Y-210312000D01*
X498602000Y-210312000D02*
X501396000Y-210312000D01*
X501396000Y-210312000D02*
X504190000Y-213106000D01*
X504190000Y-227866000D02*
X501424000Y-230632000D01*
X504190000Y-213106000D02*
X504190000Y-227866000D01*
X79051991Y-173549599D02*
X86935600Y-165665990D01*
X79051990Y-185686400D02*
X79051991Y-173549599D01*
X85389590Y-192024000D02*
X79051990Y-185686400D01*
X90678000Y-192024000D02*
X85389590Y-192024000D01*
X90424000Y-192024000D02*
X90678000Y-192024000D01*
X90678000Y-192024000D02*
X102108000Y-192024000D01*
X186757600Y-165665990D02*
X212723590Y-139700000D01*
X86935600Y-165665990D02*
X186757600Y-165665990D01*
X216408000Y-139700000D02*
X218694000Y-141986000D01*
X212723590Y-139700000D02*
X216408000Y-139700000D01*
%TO.N,Net-(D22-Pad2)*%
X127408000Y-195680000D02*
X127408000Y-201420000D01*
X131308000Y-205320000D02*
X131308000Y-205730000D01*
X127408000Y-201420000D02*
X131308000Y-205320000D01*
%TO.N,Net-(D23-Pad2)*%
X146408000Y-195680000D02*
X146408000Y-201420000D01*
X150308000Y-205320000D02*
X150308000Y-205730000D01*
X146408000Y-201420000D02*
X150308000Y-205320000D01*
%TO.N,Net-(D24-Pad2)*%
X165408000Y-195680000D02*
X165408000Y-201420000D01*
X169308000Y-205320000D02*
X169308000Y-205730000D01*
X165408000Y-201420000D02*
X169308000Y-205320000D01*
%TO.N,Net-(D25-Pad2)*%
X184408000Y-195680000D02*
X184408000Y-201420000D01*
X188308000Y-205320000D02*
X188308000Y-205730000D01*
X184408000Y-201420000D02*
X188308000Y-205320000D01*
%TO.N,Net-(D26-Pad2)*%
X203408000Y-195680000D02*
X203408000Y-201420000D01*
X207308000Y-205320000D02*
X207308000Y-205730000D01*
X203408000Y-201420000D02*
X207308000Y-205320000D01*
%TO.N,Net-(D27-Pad2)*%
X222408000Y-195680000D02*
X222408000Y-201420000D01*
X226308000Y-205320000D02*
X226308000Y-205730000D01*
X222408000Y-201420000D02*
X226308000Y-205320000D01*
%TO.N,Net-(D28-Pad2)*%
X241408000Y-195680000D02*
X241408000Y-201420000D01*
X245308000Y-205320000D02*
X245308000Y-205730000D01*
X241408000Y-201420000D02*
X245308000Y-205320000D01*
%TO.N,Net-(D29-Pad2)*%
X260408000Y-195680000D02*
X260408000Y-201420000D01*
X264308000Y-205320000D02*
X264308000Y-205730000D01*
X260408000Y-201420000D02*
X264308000Y-205320000D01*
%TO.N,Net-(D30-Pad2)*%
X279408000Y-195680000D02*
X279408000Y-201420000D01*
X283308000Y-205320000D02*
X283308000Y-205730000D01*
X279408000Y-201420000D02*
X283308000Y-205320000D01*
%TO.N,Net-(D31-Pad2)*%
X298408000Y-195680000D02*
X298408000Y-201420000D01*
X302308000Y-205320000D02*
X302308000Y-205730000D01*
X298408000Y-201420000D02*
X302308000Y-205320000D01*
%TO.N,Net-(D32-Pad2)*%
X319783000Y-195680000D02*
X319783000Y-201420000D01*
X323683000Y-205320000D02*
X323683000Y-205730000D01*
X319783000Y-201420000D02*
X323683000Y-205320000D01*
%TO.N,Net-(D33-Pad2)*%
X343533000Y-195680000D02*
X343533000Y-201420000D01*
X347433000Y-205320000D02*
X347433000Y-205730000D01*
X343533000Y-201420000D02*
X347433000Y-205320000D01*
%TO.N,Net-(D34-Pad2)*%
X393808000Y-195680000D02*
X393808000Y-201420000D01*
X397708000Y-205320000D02*
X397708000Y-205730000D01*
X393808000Y-201420000D02*
X397708000Y-205320000D01*
%TO.N,Net-(D35-Pad2)*%
X412808000Y-195680000D02*
X412808000Y-201420000D01*
X416708000Y-205320000D02*
X416708000Y-205730000D01*
X412808000Y-201420000D02*
X416708000Y-205320000D01*
%TO.N,Net-(D36-Pad2)*%
X441608000Y-195680000D02*
X441608000Y-201420000D01*
X445508000Y-205320000D02*
X445508000Y-205730000D01*
X441608000Y-201420000D02*
X445508000Y-205320000D01*
%TO.N,Net-(D37-Pad2)*%
X460608000Y-195680000D02*
X460608000Y-201420000D01*
X464508000Y-205320000D02*
X464508000Y-205730000D01*
X460608000Y-201420000D02*
X464508000Y-205320000D01*
%TO.N,Net-(D38-Pad2)*%
X479608000Y-195680000D02*
X479608000Y-201420000D01*
X483508000Y-205320000D02*
X483508000Y-205730000D01*
X479608000Y-201420000D02*
X483508000Y-205320000D01*
%TO.N,Net-(D39-Pad2)*%
X498608000Y-195680000D02*
X498608000Y-201420000D01*
X502508000Y-205320000D02*
X502508000Y-205730000D01*
X498608000Y-201420000D02*
X502508000Y-205320000D01*
%TO.N,Net-(D41-Pad2)*%
X490421000Y-247100000D02*
X496161000Y-247100000D01*
X490421000Y-247100000D02*
X486664000Y-243343000D01*
X486664000Y-237592000D02*
X493624000Y-230632000D01*
X486664000Y-243343000D02*
X486664000Y-237592000D01*
%TO.N,Net-(D42-Pad2)*%
X89408000Y-214680000D02*
X89408000Y-220420000D01*
X93308000Y-224320000D02*
X93308000Y-224730000D01*
X89408000Y-220420000D02*
X93308000Y-224320000D01*
%TO.N,/row2*%
X493829250Y-224730000D02*
X491550000Y-224730000D01*
X491550000Y-224730000D02*
X487934000Y-228346000D01*
X478366500Y-228346000D02*
X474750500Y-224730000D01*
X486213990Y-228542010D02*
X486410000Y-228346000D01*
X486213990Y-248469990D02*
X486213990Y-228542010D01*
X488696000Y-250952000D02*
X486213990Y-248469990D01*
X494910000Y-253864000D02*
X491998000Y-250952000D01*
X494910000Y-255016000D02*
X494910000Y-253864000D01*
X486410000Y-228346000D02*
X478366500Y-228346000D01*
X491998000Y-250952000D02*
X488696000Y-250952000D01*
X487934000Y-228346000D02*
X486410000Y-228346000D01*
X474750500Y-224730000D02*
X474532000Y-224730000D01*
X474532000Y-224730000D02*
X470916000Y-228346000D01*
X459287750Y-228346000D02*
X455671750Y-224730000D01*
X470916000Y-228346000D02*
X459287750Y-228346000D01*
X455671750Y-224730000D02*
X455671750Y-226826250D01*
X455671750Y-226826250D02*
X453390000Y-229108000D01*
X440971000Y-229108000D02*
X436593000Y-224730000D01*
X453390000Y-229108000D02*
X440971000Y-229108000D01*
X436593000Y-224730000D02*
X436432000Y-224730000D01*
X436432000Y-224730000D02*
X432308000Y-228854000D01*
X411838250Y-228854000D02*
X407714250Y-224730000D01*
X432308000Y-228854000D02*
X411838250Y-228854000D01*
X407714250Y-224730000D02*
X407714250Y-225253750D01*
X407714250Y-225253750D02*
X404876000Y-228092000D01*
X391997500Y-228092000D02*
X388635500Y-224730000D01*
X404876000Y-228092000D02*
X391997500Y-228092000D01*
X389835500Y-224730000D02*
X381060000Y-224730000D01*
X381060000Y-224730000D02*
X377444000Y-228346000D01*
X377444000Y-228346000D02*
X356108000Y-228346000D01*
X356108000Y-228346000D02*
X353314000Y-225552000D01*
X353314000Y-225512250D02*
X352531750Y-224730000D01*
X353314000Y-225552000D02*
X353314000Y-225512250D01*
X352531750Y-224730000D02*
X352104000Y-224730000D01*
X352104000Y-224730000D02*
X348234000Y-228600000D01*
X327823000Y-228600000D02*
X323953000Y-224730000D01*
X348234000Y-228600000D02*
X327823000Y-228600000D01*
X325153000Y-224730000D02*
X323910000Y-224730000D01*
X323910000Y-224730000D02*
X323850000Y-224790000D01*
X323850000Y-224790000D02*
X320040000Y-224790000D01*
X305758010Y-210508010D02*
X297122010Y-210508010D01*
X320040000Y-224790000D02*
X305758010Y-210508010D01*
X297122010Y-210508010D02*
X293508020Y-214122000D01*
X293508020Y-214122000D02*
X293508020Y-222388020D01*
X295850000Y-224730000D02*
X301324250Y-224730000D01*
X293508020Y-222388020D02*
X295850000Y-224730000D01*
X301324250Y-224730000D02*
X295970000Y-224730000D01*
X295970000Y-224730000D02*
X292100000Y-228600000D01*
X284915500Y-228600000D02*
X281045500Y-224730000D01*
X292100000Y-228600000D02*
X284915500Y-228600000D01*
X281045500Y-224730000D02*
X281045500Y-224922500D01*
X281045500Y-224922500D02*
X277368000Y-228600000D01*
X265836750Y-228600000D02*
X261966750Y-224730000D01*
X277368000Y-228600000D02*
X265836750Y-228600000D01*
X261966750Y-224730000D02*
X261934000Y-224730000D01*
X261934000Y-224730000D02*
X258064000Y-228600000D01*
X246758000Y-228600000D02*
X242888000Y-224730000D01*
X258064000Y-228600000D02*
X246758000Y-228600000D01*
X242888000Y-224730000D02*
X242884000Y-224730000D01*
X242884000Y-224730000D02*
X239014000Y-228600000D01*
X227679250Y-228600000D02*
X223809250Y-224730000D01*
X239014000Y-228600000D02*
X227679250Y-228600000D01*
X223809250Y-224730000D02*
X223809250Y-225516750D01*
X223809250Y-225516750D02*
X220726000Y-228600000D01*
X208600500Y-228600000D02*
X204730500Y-224730000D01*
X220726000Y-228600000D02*
X208600500Y-228600000D01*
X204730500Y-224730000D02*
X200466000Y-224730000D01*
X200466000Y-224730000D02*
X196716000Y-220980000D01*
X196716000Y-220980000D02*
X196716000Y-215258000D01*
X196716000Y-215258000D02*
X192024000Y-210566000D01*
X192024000Y-210566000D02*
X180340000Y-210566000D01*
X180340000Y-210566000D02*
X177546000Y-213360000D01*
X177546000Y-213360000D02*
X177546000Y-223012000D01*
X179264000Y-224730000D02*
X185651750Y-224730000D01*
X177546000Y-223012000D02*
X179264000Y-224730000D01*
X185651750Y-224730000D02*
X179384000Y-224730000D01*
X179384000Y-224730000D02*
X176022000Y-228092000D01*
X176022000Y-228092000D02*
X168402000Y-228092000D01*
X166573000Y-226263000D02*
X166573000Y-224730000D01*
X168402000Y-228092000D02*
X166573000Y-226263000D01*
X166573000Y-224730000D02*
X166573000Y-225603000D01*
X166573000Y-225603000D02*
X163322000Y-228854000D01*
X151618250Y-228854000D02*
X147494250Y-224730000D01*
X163322000Y-228854000D02*
X151618250Y-228854000D01*
X147494250Y-224730000D02*
X147494250Y-224869750D01*
X147494250Y-224869750D02*
X143510000Y-228854000D01*
X132539500Y-228854000D02*
X128415500Y-224730000D01*
X143510000Y-228854000D02*
X132539500Y-228854000D01*
X128415500Y-224730000D02*
X128415500Y-224898500D01*
X128415500Y-224898500D02*
X124714000Y-228600000D01*
X110831750Y-228600000D02*
X106961750Y-224730000D01*
X124714000Y-228600000D02*
X110831750Y-228600000D01*
X106961750Y-224730000D02*
X106961750Y-224762250D01*
X106961750Y-224762250D02*
X102616000Y-229108000D01*
X89886000Y-229108000D02*
X85508000Y-224730000D01*
X102616000Y-229108000D02*
X89886000Y-229108000D01*
X218497991Y-139249991D02*
X212286009Y-139249991D01*
X221234000Y-141986000D02*
X218497991Y-139249991D01*
X78601982Y-173363200D02*
X78601982Y-223127982D01*
X86749199Y-165215981D02*
X78601982Y-173363200D01*
X186320020Y-165215980D02*
X86749199Y-165215981D01*
X212286009Y-139249991D02*
X186320020Y-165215980D01*
X80204000Y-224730000D02*
X85508000Y-224730000D01*
X78601982Y-223127982D02*
X80204000Y-224730000D01*
%TO.N,Net-(D43-Pad2)*%
X110783000Y-214680000D02*
X110783000Y-220420000D01*
X114761750Y-224398750D02*
X114761750Y-224730000D01*
X110783000Y-220420000D02*
X114761750Y-224398750D01*
%TO.N,Net-(D44-Pad2)*%
X132158000Y-214680000D02*
X132158000Y-220420000D01*
X136215500Y-224477500D02*
X136215500Y-224730000D01*
X132158000Y-220420000D02*
X136215500Y-224477500D01*
%TO.N,Net-(D45-Pad2)*%
X151158000Y-214680000D02*
X151158000Y-220420000D01*
X155294250Y-224556250D02*
X155294250Y-224730000D01*
X151158000Y-220420000D02*
X155294250Y-224556250D01*
%TO.N,Net-(D46-Pad2)*%
X170158000Y-214680000D02*
X170158000Y-220420000D01*
X174373000Y-224635000D02*
X174373000Y-224730000D01*
X170158000Y-220420000D02*
X174373000Y-224635000D01*
%TO.N,Net-(D49-Pad2)*%
X208158000Y-214680000D02*
X208158000Y-220420000D01*
X212468000Y-224730000D02*
X212530500Y-224730000D01*
X208158000Y-220420000D02*
X212468000Y-224730000D01*
%TO.N,Net-(D50-Pad2)*%
X227158000Y-214680000D02*
X227158000Y-220420000D01*
X231468000Y-224730000D02*
X231609250Y-224730000D01*
X227158000Y-220420000D02*
X231468000Y-224730000D01*
%TO.N,Net-(D51-Pad2)*%
X246158000Y-214680000D02*
X246158000Y-220420000D01*
X250468000Y-224730000D02*
X250688000Y-224730000D01*
X246158000Y-220420000D02*
X250468000Y-224730000D01*
%TO.N,Net-(D52-Pad2)*%
X265158000Y-214680000D02*
X265158000Y-220420000D01*
X269468000Y-224730000D02*
X269766750Y-224730000D01*
X265158000Y-220420000D02*
X269468000Y-224730000D01*
%TO.N,Net-(D53-Pad2)*%
X284158000Y-214680000D02*
X284158000Y-220420000D01*
X288468000Y-224730000D02*
X288845500Y-224730000D01*
X284158000Y-220420000D02*
X288468000Y-224730000D01*
%TO.N,Net-(D54-Pad2)*%
X305533000Y-214680000D02*
X305533000Y-220420000D01*
X307924250Y-222811250D02*
X307924250Y-224730000D01*
X305533000Y-220420000D02*
X307924250Y-222811250D01*
%TO.N,Net-(D55-Pad2)*%
X329283000Y-214680000D02*
X329283000Y-220420000D01*
X331753000Y-222890000D02*
X331753000Y-224730000D01*
X329283000Y-220420000D02*
X331753000Y-222890000D01*
%TO.N,Net-(D56-Pad2)*%
X357783000Y-214680000D02*
X357783000Y-220420000D01*
X360331750Y-222968750D02*
X360331750Y-224730000D01*
X357783000Y-220420000D02*
X360331750Y-222968750D01*
%TO.N,Net-(D57-Pad2)*%
X393808000Y-214680000D02*
X393808000Y-220420000D01*
X396435500Y-223047500D02*
X396435500Y-224730000D01*
X393808000Y-220420000D02*
X396435500Y-223047500D01*
%TO.N,Net-(D58-Pad2)*%
X412808000Y-214680000D02*
X412808000Y-220420000D01*
X415514250Y-223126250D02*
X415514250Y-224730000D01*
X412808000Y-220420000D02*
X415514250Y-223126250D01*
%TO.N,Net-(D59-Pad2)*%
X441608000Y-214680000D02*
X441608000Y-220420000D01*
X444393000Y-223205000D02*
X444393000Y-224730000D01*
X441608000Y-220420000D02*
X444393000Y-223205000D01*
%TO.N,Net-(D60-Pad2)*%
X460608000Y-214680000D02*
X460608000Y-220420000D01*
X463471750Y-223283750D02*
X463471750Y-224730000D01*
X460608000Y-220420000D02*
X463471750Y-223283750D01*
%TO.N,Net-(D61-Pad2)*%
X479608000Y-214680000D02*
X479608000Y-220420000D01*
X482550500Y-223362500D02*
X482550500Y-224730000D01*
X479608000Y-220420000D02*
X482550500Y-223362500D01*
%TO.N,Net-(D62-Pad2)*%
X498608000Y-214680000D02*
X498608000Y-220420000D01*
X501629250Y-223441250D02*
X501629250Y-224730000D01*
X498608000Y-220420000D02*
X501629250Y-223441250D01*
%TO.N,Net-(D63-Pad2)*%
X479608000Y-252680000D02*
X479608000Y-258420000D01*
X481944000Y-255016000D02*
X479608000Y-252680000D01*
X487110000Y-255016000D02*
X481944000Y-255016000D01*
X487110000Y-255016000D02*
X482346000Y-255016000D01*
%TO.N,Net-(D64-Pad2)*%
X89408000Y-233680000D02*
X89408000Y-239420000D01*
X93308000Y-243320000D02*
X93308000Y-243730000D01*
X89408000Y-239420000D02*
X93308000Y-243320000D01*
%TO.N,/row3*%
X475708000Y-243730000D02*
X475344000Y-243730000D01*
X475344000Y-243730000D02*
X471424000Y-247650000D01*
X460628000Y-247650000D02*
X456708000Y-243730000D01*
X471424000Y-247650000D02*
X460628000Y-247650000D01*
X456708000Y-243730000D02*
X456708000Y-245094000D01*
X456708000Y-245094000D02*
X453898000Y-247904000D01*
X441882000Y-247904000D02*
X437708000Y-243730000D01*
X453898000Y-247904000D02*
X441882000Y-247904000D01*
X437708000Y-243730000D02*
X437708000Y-243774000D01*
X431648000Y-249834000D02*
X431648000Y-255270000D01*
X437708000Y-243774000D02*
X431648000Y-249834000D01*
X408908000Y-243730000D02*
X408908000Y-243808000D01*
X414934000Y-249834000D02*
X431648000Y-249834000D01*
X408908000Y-243808000D02*
X414934000Y-249834000D01*
X408908000Y-243730000D02*
X408908000Y-244380000D01*
X408908000Y-244380000D02*
X405130000Y-248158000D01*
X394336000Y-248158000D02*
X389908000Y-243730000D01*
X405130000Y-248158000D02*
X394336000Y-248158000D01*
X389908000Y-243730000D02*
X389908000Y-244330000D01*
X389908000Y-244330000D02*
X386080000Y-248158000D01*
X365436000Y-248158000D02*
X361008000Y-243730000D01*
X386080000Y-248158000D02*
X365436000Y-248158000D01*
X361008000Y-243730000D02*
X361008000Y-244020000D01*
X361008000Y-244020000D02*
X357124000Y-247904000D01*
X339057000Y-247904000D02*
X334883000Y-243730000D01*
X357124000Y-247904000D02*
X339057000Y-247904000D01*
X334883000Y-243730000D02*
X334882000Y-243730000D01*
X334882000Y-243730000D02*
X330708000Y-247904000D01*
X312932000Y-247904000D02*
X308758000Y-243730000D01*
X330708000Y-247904000D02*
X312932000Y-247904000D01*
X308758000Y-243730000D02*
X308720000Y-243730000D01*
X308720000Y-243730000D02*
X304546000Y-247904000D01*
X293932000Y-247904000D02*
X289758000Y-243730000D01*
X304546000Y-247904000D02*
X293932000Y-247904000D01*
X289758000Y-243730000D02*
X289758000Y-244150000D01*
X289758000Y-244150000D02*
X286004000Y-247904000D01*
X274932000Y-247904000D02*
X270758000Y-243730000D01*
X286004000Y-247904000D02*
X274932000Y-247904000D01*
X270758000Y-243730000D02*
X270758000Y-244100000D01*
X270758000Y-244100000D02*
X267208000Y-247650000D01*
X255678000Y-247650000D02*
X251758000Y-243730000D01*
X267208000Y-247650000D02*
X255678000Y-247650000D01*
X251758000Y-243730000D02*
X251758000Y-243796000D01*
X251758000Y-243796000D02*
X248158000Y-247396000D01*
X236424000Y-247396000D02*
X232758000Y-243730000D01*
X242480000Y-247486000D02*
X242570000Y-247396000D01*
X242570000Y-247396000D02*
X236424000Y-247396000D01*
X242480000Y-255016000D02*
X242480000Y-247486000D01*
X248158000Y-247396000D02*
X242570000Y-247396000D01*
X232758000Y-243730000D02*
X232758000Y-243746000D01*
X232758000Y-243746000D02*
X228854000Y-247650000D01*
X217678000Y-247650000D02*
X213758000Y-243730000D01*
X228854000Y-247650000D02*
X217678000Y-247650000D01*
X213758000Y-243730000D02*
X213724000Y-243730000D01*
X213724000Y-243730000D02*
X209550000Y-247904000D01*
X198932000Y-247904000D02*
X194758000Y-243730000D01*
X209550000Y-247904000D02*
X198932000Y-247904000D01*
X194758000Y-243730000D02*
X194674000Y-243730000D01*
X194674000Y-243730000D02*
X190500000Y-247904000D01*
X179932000Y-247904000D02*
X175758000Y-243730000D01*
X190500000Y-247904000D02*
X179932000Y-247904000D01*
X175758000Y-243730000D02*
X175758000Y-243850000D01*
X175758000Y-243850000D02*
X171958000Y-247650000D01*
X160678000Y-247650000D02*
X156758000Y-243730000D01*
X171958000Y-247650000D02*
X160678000Y-247650000D01*
X156758000Y-243730000D02*
X156758000Y-244054000D01*
X156758000Y-244054000D02*
X153162000Y-247650000D01*
X141678000Y-247650000D02*
X137758000Y-243730000D01*
X153162000Y-247650000D02*
X141678000Y-247650000D01*
X137758000Y-243730000D02*
X137758000Y-243750000D01*
X137758000Y-243750000D02*
X134112000Y-247396000D01*
X115299000Y-247396000D02*
X111633000Y-243730000D01*
X134112000Y-247396000D02*
X115299000Y-247396000D01*
X111633000Y-243730000D02*
X111616000Y-243730000D01*
X111616000Y-243730000D02*
X107950000Y-247396000D01*
X89174000Y-247396000D02*
X85508000Y-243730000D01*
X107950000Y-247396000D02*
X89174000Y-247396000D01*
X220587981Y-138799981D02*
X223774000Y-141986000D01*
X211974019Y-138799981D02*
X220587981Y-138799981D01*
X86562800Y-164765972D02*
X186008028Y-164765972D01*
X78151973Y-173176799D02*
X86562800Y-164765972D01*
X186008028Y-164765972D02*
X211974019Y-138799981D01*
X78151973Y-241219973D02*
X78151973Y-173176799D01*
X80662000Y-243730000D02*
X78151973Y-241219973D01*
X85508000Y-243730000D02*
X80662000Y-243730000D01*
%TO.N,Net-(D65-Pad2)*%
X115533000Y-233680000D02*
X115533000Y-239420000D01*
X119433000Y-243320000D02*
X119433000Y-243730000D01*
X115533000Y-239420000D02*
X119433000Y-243320000D01*
%TO.N,Net-(D66-Pad2)*%
X141658000Y-233680000D02*
X141658000Y-239420000D01*
X145558000Y-243320000D02*
X145558000Y-243730000D01*
X141658000Y-239420000D02*
X145558000Y-243320000D01*
%TO.N,Net-(D67-Pad2)*%
X160658000Y-233680000D02*
X160658000Y-239420000D01*
X164558000Y-243320000D02*
X164558000Y-243730000D01*
X160658000Y-239420000D02*
X164558000Y-243320000D01*
%TO.N,Net-(D68-Pad2)*%
X179658000Y-233680000D02*
X179658000Y-239420000D01*
X183558000Y-243320000D02*
X183558000Y-243730000D01*
X179658000Y-239420000D02*
X183558000Y-243320000D01*
%TO.N,Net-(D69-Pad2)*%
X198658000Y-233680000D02*
X198658000Y-239420000D01*
X202558000Y-243320000D02*
X202558000Y-243730000D01*
X198658000Y-239420000D02*
X202558000Y-243320000D01*
%TO.N,Net-(D70-Pad2)*%
X217658000Y-233680000D02*
X217658000Y-239420000D01*
X221558000Y-243320000D02*
X221558000Y-243730000D01*
X217658000Y-239420000D02*
X221558000Y-243320000D01*
%TO.N,Net-(D71-Pad2)*%
X227158000Y-252680000D02*
X227158000Y-258420000D01*
X227158000Y-252680000D02*
X232868000Y-252680000D01*
X232868000Y-252680000D02*
X240284000Y-260096000D01*
X245200000Y-260096000D02*
X250280000Y-255016000D01*
X240284000Y-260096000D02*
X245200000Y-260096000D01*
%TO.N,Net-(D72-Pad2)*%
X236658000Y-233680000D02*
X236658000Y-239420000D01*
X240558000Y-243320000D02*
X240558000Y-243730000D01*
X236658000Y-239420000D02*
X240558000Y-243320000D01*
%TO.N,Net-(D73-Pad2)*%
X255658000Y-233680000D02*
X255658000Y-239420000D01*
X259558000Y-243320000D02*
X259558000Y-243730000D01*
X255658000Y-239420000D02*
X259558000Y-243320000D01*
%TO.N,Net-(D74-Pad2)*%
X274658000Y-233680000D02*
X274658000Y-239420000D01*
X278558000Y-243320000D02*
X278558000Y-243730000D01*
X274658000Y-239420000D02*
X278558000Y-243320000D01*
%TO.N,Net-(D75-Pad2)*%
X293658000Y-233680000D02*
X293658000Y-239420000D01*
X297558000Y-243320000D02*
X297558000Y-243730000D01*
X293658000Y-239420000D02*
X297558000Y-243320000D01*
%TO.N,Net-(D76-Pad2)*%
X312658000Y-233680000D02*
X312658000Y-239420000D01*
X316558000Y-243320000D02*
X316558000Y-243730000D01*
X312658000Y-239420000D02*
X316558000Y-243320000D01*
%TO.N,Net-(D77-Pad2)*%
X338783000Y-233680000D02*
X338783000Y-239420000D01*
X342683000Y-243320000D02*
X342683000Y-243730000D01*
X338783000Y-239420000D02*
X342683000Y-243320000D01*
%TO.N,Net-(D78-Pad2)*%
X364908000Y-233680000D02*
X364908000Y-239420000D01*
X368808000Y-243320000D02*
X368808000Y-243730000D01*
X364908000Y-239420000D02*
X368808000Y-243320000D01*
%TO.N,Net-(D79-Pad2)*%
X393808000Y-233680000D02*
X393808000Y-239420000D01*
X397708000Y-243320000D02*
X397708000Y-243730000D01*
X393808000Y-239420000D02*
X397708000Y-243320000D01*
%TO.N,Net-(D80-Pad2)*%
X412808000Y-233680000D02*
X412808000Y-239420000D01*
X416708000Y-243320000D02*
X416708000Y-243730000D01*
X412808000Y-239420000D02*
X416708000Y-243320000D01*
%TO.N,Net-(D81-Pad2)*%
X441608000Y-233680000D02*
X441608000Y-239420000D01*
X445508000Y-243320000D02*
X445508000Y-243730000D01*
X441608000Y-239420000D02*
X445508000Y-243320000D01*
%TO.N,Net-(D82-Pad2)*%
X460608000Y-233680000D02*
X460608000Y-239420000D01*
X464508000Y-243320000D02*
X464508000Y-243730000D01*
X460608000Y-239420000D02*
X464508000Y-243320000D01*
%TO.N,Net-(D83-Pad2)*%
X479608000Y-233680000D02*
X479608000Y-239420000D01*
X483508000Y-243320000D02*
X483508000Y-243730000D01*
X479608000Y-239420000D02*
X483508000Y-243320000D01*
%TO.N,Net-(D84-Pad2)*%
X451108000Y-252680000D02*
X451108000Y-258420000D01*
X451108000Y-252680000D02*
X446840000Y-248412000D01*
X446840000Y-248412000D02*
X442976000Y-248412000D01*
X439448000Y-251940000D02*
X439448000Y-255270000D01*
X442976000Y-248412000D02*
X439448000Y-251940000D01*
%TO.N,Net-(D47-Pad2)*%
X189158000Y-214680000D02*
X189158000Y-220420000D01*
X193451750Y-224713750D02*
X193451750Y-224730000D01*
X189158000Y-220420000D02*
X193451750Y-224713750D01*
%TD*%
M02*
